<?xml version="1.0" encoding="utf-8"?>
<!-- Generator: Adobe Illustrator 25.0.0, SVG Export Plug-In . SVG Version: 6.00 Build 0)  -->
<svg version="1.1" id="Layer_1" xmlns="http://www.w3.org/2000/svg" xmlns:xlink="http://www.w3.org/1999/xlink" x="0px" y="0px"
	 viewBox="0 0 16 16" style="enable-background:new 0 0 16 16;" xml:space="preserve">
<style type="text/css">
	.st0{fill:none;}
</style>
<rect id="bg" class="st0" width="16" height="16"/>
<g>
	<path d="M14,2.7V2h-0.7C11.9,0.8,10,0,8,0S4.1,0.8,2.7,2H2v0.7C0.8,4.1,0,6,0,8s0.8,3.9,2,5.3V15h2.1c1.1,0.6,2.5,1,3.9,1
		s2.7-0.4,3.9-1H14v-1.7c1.2-1.4,2-3.3,2-5.3S15.2,4.1,14,2.7z M8,1c1.3,0,2.6,0.4,3.6,1H4.4C5.4,1.4,6.7,1,8,1z M1,8
		c0-1.3,0.4-2.6,1-3.6v7.2C1.4,10.6,1,9.3,1,8z M3,14V3h10v5H5v6H3z M6,14V9h7v2H8v1h5v2H6z M14,8V4.4c0.6,1.1,1,2.3,1,3.6
		s-0.4,2.6-1,3.6V8z"/>
	<rect x="5" y="5" width="6" height="1"/>
</g>
</svg>
