<?xml version="1.0" encoding="utf-8"?>
<!-- Generator: Adobe Illustrator 25.0.0, SVG Export Plug-In . SVG Version: 6.00 Build 0)  -->
<svg version="1.1" id="Layer_1" xmlns="http://www.w3.org/2000/svg" xmlns:xlink="http://www.w3.org/1999/xlink" x="0px" y="0px"
	 viewBox="0 0 32 32" style="enable-background:new 0 0 32 32;" xml:space="preserve">
<style type="text/css">
	.st0{fill:none;}
</style>
<rect id="bg" x="0" class="st0" width="32" height="32"/>
<path d="M19.47,18.08c1.2-1.63,1.93-3.62,1.93-5.79c0-5.46-4.42-9.88-9.88-9.88s-9.88,4.42-9.88,9.88s4.42,9.88,9.88,9.88
	c2.17,0,4.16-0.73,5.79-1.93l9.55,9.53L29,27.62L19.47,18.08z M11.52,19.13c-3.78,0-6.84-3.06-6.84-6.84s3.06-6.84,6.84-6.84
	s6.84,3.06,6.84,6.84S15.3,19.13,11.52,19.13z"/>
<path id="Path_684" d="M16.33,13.15v-1.71c0-0.17-1.38-0.33-1.8-0.38H14.5c-0.1-0.22-0.22-0.44-0.37-0.63
	c0.25-0.54,0.46-1.11,0.62-1.68c0-0.03-0.02-0.07-0.05-0.09l-0.05-0.03c-1.17-0.68-1.44-0.83-1.47-0.83l-0.07,0.02
	C12.72,8.26,12.34,8.72,12,9.21c-0.12-0.02-0.24-0.03-0.36-0.03c-0.12,0-0.24,0.01-0.36,0.03c-0.34-0.51-0.75-0.98-1.2-1.39
	c-0.04,0-0.5,0.27-0.91,0.51L9.1,8.35L8.99,8.42C8.78,8.54,8.61,8.64,8.56,8.66C8.53,8.68,8.51,8.71,8.51,8.75
	c0.16,0.58,0.37,1.14,0.62,1.68c-0.14,0.2-0.27,0.41-0.37,0.64c-0.19,0.02-1.82,0.19-1.82,0.38v1.71c0,0.17,1.35,0.33,1.82,0.38
	c0.1,0.23,0.22,0.44,0.37,0.64c-0.25,0.54-0.46,1.11-0.62,1.68c0,0.03,0.02,0.07,0.05,0.08l0.05,0.03l0.09,0.05
	c0.4,0.24,1.32,0.78,1.37,0.78c0.46-0.42,0.86-0.89,1.2-1.4c0.24,0.03,0.49,0.03,0.73,0c0.34,0.51,0.75,0.98,1.2,1.4
	c0.04,0,0.5-0.26,1.38-0.79l0.09-0.05l0.05-0.03c0.03-0.02,0.05-0.05,0.05-0.08c-0.16-0.58-0.37-1.14-0.62-1.68
	c0.15-0.2,0.27-0.41,0.37-0.64C14.7,13.51,16.33,13.34,16.33,13.15 M11.64,13.86L11.64,13.86c-0.86,0-1.56-0.7-1.56-1.56
	c0.01-0.86,0.7-1.55,1.56-1.56c0.86,0.02,1.54,0.74,1.52,1.6C13.14,13.17,12.47,13.84,11.64,13.86"/>
</svg>
