<?xml version="1.0" encoding="utf-8"?>
<!-- Generator: Adobe Illustrator 25.0.0, SVG Export Plug-In . SVG Version: 6.00 Build 0)  -->
<svg version="1.1" id="Layer_1" xmlns="http://www.w3.org/2000/svg" xmlns:xlink="http://www.w3.org/1999/xlink" x="0px" y="0px"
	 viewBox="0 0 32 32" style="enable-background:new 0 0 32 32;" xml:space="preserve">
<style type="text/css">
	.st0{fill:none;}
</style>
<rect id="bg" x="0" class="st0" width="32" height="32"/>
<g id="python_logo">
	<path id="Path_656" d="M15.73,3.2c-0.99,0-1.98,0.09-2.96,0.25c-2.62,0.46-3.1,1.43-3.1,3.22v2.37h6.2v0.79H7.34
		c-1.88-0.03-3.52,1.29-3.87,3.14c-0.58,2.06-0.58,4.24,0,6.3c0.44,1.84,1.49,3.15,3.3,3.15H8.9v-2.83
		c0.05-2.12,1.76-3.82,3.88-3.85h6.2c1.73-0.01,3.11-1.42,3.1-3.15c0,0,0,0,0,0V6.67c-0.11-1.69-1.42-3.05-3.1-3.22
		C17.9,3.27,16.82,3.19,15.73,3.2 M12.38,5.1c0.65-0.01,1.19,0.51,1.2,1.16c0.01,0.65-0.51,1.19-1.16,1.2
		c-0.65,0.01-1.19-0.51-1.2-1.16c0,0,0-0.01,0-0.01C11.21,5.63,11.73,5.1,12.38,5.1"/>
	<path id="Path_657" d="M22.84,9.83v2.75c-0.02,2.14-1.73,3.87-3.87,3.93h-6.2c-1.72,0.03-3.1,1.44-3.1,3.16v5.9
		c0,1.68,1.46,2.67,3.1,3.15c2.02,0.63,4.18,0.63,6.2,0c1.56-0.45,3.1-1.36,3.1-3.15v-2.36h-6.2v-0.79h9.3c1.8,0,2.47-1.26,3.1-3.15
		c0.64-2.05,0.64-4.25,0-6.3c-0.45-1.79-1.3-3.15-3.1-3.15L22.84,9.83z M19.36,24.78c0.65-0.01,1.19,0.51,1.2,1.16
		s-0.51,1.19-1.16,1.2s-1.19-0.51-1.2-1.16c0-0.01,0-0.01,0-0.02C18.19,25.31,18.71,24.79,19.36,24.78
		C19.36,24.78,19.36,24.78,19.36,24.78"/>
</g>
</svg>
