<?xml version="1.0" encoding="utf-8"?>
<!-- Generator: Adobe Illustrator 25.0.0, SVG Export Plug-In . SVG Version: 6.00 Build 0)  -->
<svg version="1.1" id="Layer_1" xmlns="http://www.w3.org/2000/svg" xmlns:xlink="http://www.w3.org/1999/xlink" x="0px" y="0px"
	 viewBox="0 0 32 32" style="enable-background:new 0 0 32 32;" xml:space="preserve">
<style type="text/css">
	.st0{fill:none;}
</style>
<rect id="bg" x="0" class="st0" width="32" height="32"/>
<path id="c_x2B__x2B__logo" d="M27,10.76c-0.01-0.35-0.11-0.69-0.29-0.99C26.54,9.46,26.29,9.21,26,9.02l-9.55-5.51
	c-0.31-0.16-0.65-0.25-1-0.24c-0.35-0.01-0.69,0.07-1,0.24L4.9,9.02c-0.59,0.38-0.96,1.03-1,1.73v11.03
	c0.01,0.35,0.11,0.69,0.29,0.98c0.17,0.31,0.41,0.56,0.71,0.75l9.55,5.52c0.31,0.16,0.65,0.25,1,0.24c0.35,0.01,0.69-0.08,1-0.24
	L26,23.51c0.29-0.18,0.54-0.44,0.7-0.75l0,0c0,0,0,0,0,0c0,0,0,0,0,0l0,0c0.18-0.3,0.28-0.64,0.29-0.98V10.76z M23.79,15.84h0.85
	v-0.86h0.86v0.86h0.85v0.85H25.5v0.86h-0.86V16.7h-0.85V15.84z M23.15,15.84v0.85H22.3v0.86h-0.86V16.7h-0.85v-0.85h0.85v-0.86h0.86
	v0.86H23.15z M15.45,23.97c-2.75-0.01-5.29-1.47-6.67-3.85c-0.68-1.17-1.03-2.5-1.03-3.85c0.01-4.25,3.45-7.69,7.7-7.7
	c2.75,0,5.29,1.47,6.67,3.85l-3.33,1.93c-0.69-1.19-1.96-1.92-3.33-1.92c-2.13,0-3.85,1.73-3.85,3.85c0,0.68,0.18,1.34,0.52,1.92
	c0.69,1.19,1.96,1.92,3.33,1.93c1.38,0,2.65-0.74,3.34-1.92l3.33,1.93C20.74,22.5,18.2,23.97,15.45,23.97z"/>
</svg>
