<?xml version="1.0" encoding="utf-8"?>
<!-- Generator: Adobe Illustrator 25.0.0, SVG Export Plug-In . SVG Version: 6.00 Build 0)  -->
<svg version="1.1" id="Layer_1" xmlns="http://www.w3.org/2000/svg" xmlns:xlink="http://www.w3.org/1999/xlink" x="0px" y="0px"
	 viewBox="0 0 32 32" style="enable-background:new 0 0 32 32;" xml:space="preserve">
<style type="text/css">
	.st0{fill:none;}
</style>
<rect id="bg" class="st0" width="32" height="32"/>
<path d="M24.96,8.65C24.78,6.05,22.64,4,20,4c-1.64,0-3.09,0.8-4,2.03C15.09,4.8,13.64,4,12,4C9.36,4,7.22,6.05,7.04,8.65
	C3.59,9.33,1,12.36,1,16c0,2.89,1.64,5.39,4.04,6.64C5.36,25.65,7.9,28,11,28c2.09,0,3.92-1.07,5-2.69c1.08,1.62,2.91,2.69,5,2.69
	c3.1,0,5.64-2.35,5.96-5.36C29.36,21.39,31,18.89,31,16C31,12.36,28.41,9.33,24.96,8.65z M15,22c0,2.21-1.79,4-4,4
	c-2.21,0-4-1.79-4-4c0-1.1,0.44-2.09,1.16-2.81c0.03,0,0.06,0.02,0.1,0.02h4.12c0.52,0,0.94-0.42,0.94-0.94v-4.12
	c0-0.52-0.42-0.94-0.94-0.94H8.26c-0.52,0-0.94,0.42-0.94,0.94v3.12c-1,0.78-1.75,1.87-2.1,3.14C3.88,19.39,3,17.8,3,16
	c0-3.03,2.47-5.5,5.5-5.5H9V9c0-1.65,1.35-3,3-3c1.65,0,3,1.35,3,3V22z M26.78,20.4c-0.35-1.26-1.1-2.35-2.1-3.14v-3.12
	c0-0.52-0.42-0.94-0.94-0.94h-4.12c-0.52,0-0.94,0.42-0.94,0.94v4.12c0,0.52,0.42,0.94,0.94,0.94h4.12c0.04,0,0.07-0.02,0.1-0.02
	C24.56,19.91,25,20.9,25,22c0,2.21-1.79,4-4,4c-2.21,0-4-1.79-4-4V9c0-1.65,1.35-3,3-3c1.65,0,3,1.35,3,3v1.5h0.5
	c3.03,0,5.5,2.47,5.5,5.5C29,17.8,28.12,19.39,26.78,20.4z"/>
</svg>
