<?xml version="1.0" encoding="utf-8"?>
<!-- Generator: Adobe Illustrator 25.0.0, SVG Export Plug-In . SVG Version: 6.00 Build 0)  -->
<svg version="1.1" id="Layer_1" xmlns="http://www.w3.org/2000/svg" xmlns:xlink="http://www.w3.org/1999/xlink" x="0px" y="0px"
	 viewBox="0 0 32 32" style="enable-background:new 0 0 32 32;" xml:space="preserve">
<style type="text/css">
	.st0{fill:none;}
</style>
<rect id="bg" x="0" class="st0" width="32" height="32"/>
<path d="M27.06,24H26v-4.92c0-0.55-0.45-1-1-1h-8v-2.52l5-2.88l0-6.91l-6-3.45l-6,3.45v6.91l5,2.88v2.52H7c-0.55,0-1,0.45-1,1V24
	H4.94C4.42,24,4,24.42,4,24.94v4.12C4,29.58,4.42,30,4.94,30h4.12C9.58,30,10,29.58,10,29.06v-4.12C10,24.42,9.58,24,9.06,24H8
	v-3.92h7V24h-1.06C13.42,24,13,24.42,13,24.94v4.12c0,0.52,0.42,0.94,0.94,0.94h4.12c0.52,0,0.94-0.42,0.94-0.94v-4.12
	c0-0.52-0.42-0.94-0.94-0.94H17v-3.92h7V24h-1.06C22.42,24,22,24.42,22,24.94v4.12c0,0.52,0.42,0.94,0.94,0.94h4.12
	c0.52,0,0.94-0.42,0.94-0.94v-4.12C28,24.42,27.58,24,27.06,24z M20.29,11.69l-3.43,1.97V9.72l3.43-2V11.69z M16,4.3l3.39,1.95
	L16,8.23l-3.39-1.98L16,4.3z M11.71,7.72l3.43,2v3.94l-3.43-1.97V7.72z"/>
</svg>
