<?xml version="1.0" encoding="utf-8"?>
<!-- Generator: Adobe Illustrator 25.0.0, SVG Export Plug-In . SVG Version: 6.00 Build 0)  -->
<svg version="1.1" id="Layer_1" xmlns="http://www.w3.org/2000/svg" xmlns:xlink="http://www.w3.org/1999/xlink" x="0px" y="0px"
	 viewBox="0 0 32 32" style="enable-background:new 0 0 32 32;" xml:space="preserve">
<style type="text/css">
	.st0{fill:none;}
</style>
<rect id="bg" x="0" class="st0" width="32" height="32"/>
<path id="Path_676" d="M19.5,14c0,2-2.5,3.5-2.5,5h-2c0-1.5-2.5-3-2.5-5c0-1.93,1.57-3.5,3.5-3.5l0,0C17.93,10.5,19.5,12.07,19.5,14
	z M17,20h-2v1.5h2V20z"/>
<g>
	<g>
		<polygon points="28.65,8.65 30.42,1.23 22.99,2.99 25.12,5.12 20.87,9.36 22.29,10.77 26.53,6.53 		"/>
		<polygon points="9.01,2.99 1.58,1.23 3.35,8.65 5.47,6.53 9.71,10.77 11.13,9.36 6.88,5.12 		"/>
	</g>
	<g>
		<polygon points="3.35,23.35 1.58,30.77 9.01,29.01 6.88,26.88 11.13,22.64 9.71,21.23 5.47,25.47 		"/>
		<polygon points="22.99,29.01 30.42,30.77 28.65,23.35 26.53,25.47 22.29,21.23 20.87,22.64 25.12,26.88 		"/>
	</g>
</g>
</svg>
