<?xml version="1.0" encoding="utf-8"?>
<!-- Generator: Adobe Illustrator 25.0.0, SVG Export Plug-In . SVG Version: 6.00 Build 0)  -->
<svg version="1.1" id="Layer_1" xmlns="http://www.w3.org/2000/svg" xmlns:xlink="http://www.w3.org/1999/xlink" x="0px" y="0px"
	 viewBox="0 0 32 32" style="enable-background:new 0 0 32 32;" xml:space="preserve">
<style type="text/css">
	.st0{fill:none;}
</style>
<g>
	<rect class="st0" width="32" height="32"/>
</g>
<g>
	<g>
		<polygon points="24,1.3 24,4 28,4 28,8 30.7,8 30.7,1.3 		"/>
		<polygon points="28,28 24,28 24,30.7 30.7,30.7 30.7,24 28,24 		"/>
		<polygon points="4,4 8,4 8,1.3 1.3,1.3 1.3,8 4,8 		"/>
		<polygon points="4,24 1.3,24 1.3,30.7 8,30.7 8,28 4,28 		"/>
		<path d="M25.3,10.6L16,5.3l-9.3,5.4v10.7l9.3,5.4l9.3-5.4V10.6z M14.7,22.9l-5.3-3.1v-6.2l5.3,3.1V22.9z M16,14.5l-5.3-3.1l5.3-3
			l5.3,3L16,14.5z M22.7,19.8l-5.3,3.1v-6.1l5.3-3.1V19.8z"/>
	</g>
</g>
</svg>
