<?xml version="1.0" encoding="utf-8"?>
<!-- Generator: Adobe Illustrator 25.0.0, SVG Export Plug-In . SVG Version: 6.00 Build 0)  -->
<svg version="1.1" id="Layer_1" xmlns="http://www.w3.org/2000/svg" xmlns:xlink="http://www.w3.org/1999/xlink" x="0px" y="0px"
	 viewBox="0 0 32 32" style="enable-background:new 0 0 32 32;" xml:space="preserve">
<style type="text/css">
	.st0{fill:none;}
</style>
<rect id="bg" x="0" class="st0" width="32" height="32"/>
<g>
	<path d="M16.65,15.91c0.07-0.86,0.19-2.31,0.55-2.31c0.36,0,0.48,1.45,0.55,2.31c0.15,1.79,0.37,4.49,2.85,4.49s2.71-2.7,2.85-4.49
		c0.07-0.86,0.19-2.31,0.55-2.31v-2c-2.2,0-2.4,2.4-2.54,4.15c-0.15,1.8-0.31,2.65-0.86,2.65c-0.54,0-0.71-0.86-0.86-2.65
		C19.6,14,19.4,11.6,17.2,11.6s-2.4,2.4-2.54,4.15c-0.15,1.8-0.31,2.65-0.86,2.65c-0.54,0-0.71-0.86-0.86-2.65
		C12.8,14,12.6,11.6,10.4,11.6S8,14,7.86,15.75C7.71,17.54,7.54,18.4,7,18.4v2c2.48,0,2.71-2.7,2.85-4.49
		c0.07-0.86,0.19-2.31,0.55-2.31c0.36,0,0.48,1.45,0.55,2.31c0.15,1.79,0.37,4.49,2.85,4.49S16.5,17.7,16.65,15.91z"/>
	<path d="M4.86,16c0-4.2,2.34-7.85,5.77-9.75l1.66,2.32L16,2.07H7.64l1.9,2.67C5.64,6.98,3,11.18,3,16
		c0,6.21,4.38,11.41,10.21,12.69v-1.92C8.42,25.53,4.86,21.18,4.86,16z"/>
	<path d="M29,16c0-6.21-4.38-11.41-10.21-12.69v1.92c4.8,1.24,8.36,5.6,8.36,10.78c0,4.47-2.65,8.32-6.46,10.09l-1.9-2.66l-3.71,6.5
		h8.36l-1.64-2.3C26.06,25.5,29,21.09,29,16z"/>
</g>
</svg>
