<?xml version="1.0" encoding="utf-8"?>
<!-- Generator: Adobe Illustrator 25.0.0, SVG Export Plug-In . SVG Version: 6.00 Build 0)  -->
<svg version="1.1" id="Layer_1" xmlns="http://www.w3.org/2000/svg" xmlns:xlink="http://www.w3.org/1999/xlink" x="0px" y="0px"
	 viewBox="0 0 32 32" style="enable-background:new 0 0 32 32;" xml:space="preserve">
<style type="text/css">
	.st0{fill:none;}
</style>
<rect id="bg" x="0" class="st0" width="32" height="32"/>
<path id="Union_1" d="M14,31.5v-2.05h-2.09V22.8c-2.54-1.5-4.1-4.22-4.09-7.17C7.79,11.08,11.45,7.37,16,7.34
	c4.55,0.04,8.21,3.75,8.18,8.29c0.01,2.95-1.55,5.68-4.09,7.17v6.65H18v2.05H14z M26.91,17.01v-2.77H31v2.77H26.91z M1,17.01v-2.77
	h4.09v2.77H1z M23.16,6.44l2.44-2.49l1.92,1.95l-2.44,2.49L23.16,6.44z M4.49,5.89l1.92-1.95l2.44,2.49L6.95,8.36L4.49,5.89z
	 M14.64,4.58V0.5h2.73v4.08L14.64,4.58z"/>
</svg>
