<?xml version="1.0" encoding="utf-8"?>
<!-- Generator: Adobe Illustrator 25.0.0, SVG Export Plug-In . SVG Version: 6.00 Build 0)  -->
<svg version="1.1" id="Layer_1" xmlns="http://www.w3.org/2000/svg" xmlns:xlink="http://www.w3.org/1999/xlink" x="0px" y="0px"
	 viewBox="0 0 32 32" style="enable-background:new 0 0 32 32;" xml:space="preserve">
<style type="text/css">
	.st0{fill:none;}
</style>
<rect id="bg" x="0" class="st0" width="32" height="32"/>
<g id="Group_41">
	<path id="Path_681" d="M8.89,19.83H8.86c-0.1-0.22-0.22-0.44-0.36-0.63c0.25-0.54,0.46-1.11,0.62-1.68c0-0.04-0.02-0.07-0.05-0.09
		L9.01,17.4c-1.15-0.68-1.43-0.82-1.45-0.82L7.48,16.6c-0.41,0.43-0.79,0.88-1.12,1.37C6.24,17.95,6.12,17.94,6,17.94
		c-0.12,0-0.25,0.01-0.37,0.03c-0.34-0.51-0.74-0.98-1.19-1.39c-0.04,0-0.53,0.28-0.95,0.53l-0.03,0.02l-0.09,0.05
		c-0.22,0.13-0.39,0.23-0.44,0.25c-0.03,0.02-0.05,0.05-0.05,0.09c0.17,0.58,0.37,1.14,0.62,1.68c-0.15,0.2-0.27,0.41-0.37,0.64
		c-0.19,0.02-1.82,0.19-1.82,0.38v1.71c0,0.17,1.35,0.33,1.82,0.38c0.09,0.23,0.22,0.44,0.37,0.64c-0.25,0.54-0.46,1.11-0.62,1.68
		c0,0.03,0.02,0.07,0.05,0.08l0.05,0.03l0.09,0.05l0.02,0.01c0.39,0.23,1.31,0.77,1.36,0.77c0.45-0.42,0.85-0.89,1.19-1.4
		c0.12,0.02,0.25,0.02,0.37,0.02c0.12,0,0.24-0.01,0.36-0.02c0.34,0.51,0.74,0.98,1.2,1.4c0.05,0,0.97-0.55,1.37-0.78l0.09-0.05
		l0.05-0.03c0.03-0.02,0.05-0.05,0.05-0.08c-0.16-0.58-0.37-1.14-0.63-1.68c0.15-0.2,0.27-0.41,0.37-0.64
		c0.38-0.03,1.82-0.2,1.82-0.38v-1.71C10.68,20.04,9.31,19.88,8.89,19.83 M6,22.63L6,22.63c-0.86,0-1.56-0.7-1.56-1.56
		c0-0.86,0.7-1.56,1.56-1.56c0.86,0.01,1.55,0.71,1.56,1.56C7.56,21.93,6.86,22.62,6,22.63"/>
	<path id="Path_682" d="M4.44,16.57"/>
	<path id="Path_683" d="M16,10.5c-0.86,0-1.56,0.7-1.56,1.56s0.7,1.56,1.56,1.56s1.56-0.7,1.56-1.56C17.56,11.2,16.86,10.5,16,10.5"
		/>
	<path id="Path_684" d="M30.69,21.92v-1.71c0-0.17-1.38-0.33-1.8-0.38h-0.02c-0.1-0.22-0.22-0.44-0.37-0.63
		c0.25-0.54,0.46-1.11,0.62-1.68c0-0.03-0.02-0.07-0.05-0.09l-0.05-0.03c-1.17-0.68-1.44-0.83-1.47-0.83l-0.07,0.02
		c-0.41,0.43-0.79,0.88-1.12,1.37c-0.12-0.02-0.24-0.03-0.36-0.03c-0.12,0-0.24,0.01-0.36,0.03c-0.34-0.51-0.75-0.98-1.2-1.39
		c-0.04,0-0.5,0.27-0.91,0.51l-0.06,0.04l-0.11,0.06c-0.21,0.12-0.38,0.22-0.43,0.25c-0.03,0.02-0.05,0.05-0.05,0.09
		c0.16,0.58,0.37,1.14,0.62,1.68c-0.14,0.2-0.27,0.41-0.37,0.64c-0.19,0.02-1.82,0.19-1.82,0.38v1.71c0,0.17,1.35,0.33,1.82,0.38
		c0.1,0.23,0.22,0.44,0.37,0.64c-0.25,0.54-0.46,1.11-0.62,1.68c0,0.03,0.02,0.07,0.05,0.08l0.05,0.03l0.09,0.05
		c0.4,0.24,1.32,0.78,1.37,0.78c0.46-0.42,0.86-0.89,1.2-1.4c0.24,0.03,0.49,0.03,0.73,0c0.34,0.51,0.75,0.98,1.2,1.4
		c0.04,0,0.5-0.26,1.38-0.79l0.09-0.05l0.05-0.03c0.03-0.02,0.05-0.05,0.05-0.08c-0.16-0.58-0.37-1.14-0.62-1.68
		c0.15-0.2,0.27-0.41,0.37-0.64C29.06,22.27,30.69,22.1,30.69,21.92 M26,22.63L26,22.63c-0.86,0-1.56-0.7-1.56-1.56
		c0.01-0.86,0.7-1.55,1.56-1.56c0.86,0.02,1.54,0.74,1.52,1.6C27.5,21.93,26.83,22.6,26,22.63"/>
	<path id="Path_685" d="M23.1,16.41c2.31-3.96,0.97-9.05-3-11.36c-1.23-0.72-2.63-1.11-4.05-1.13c-4.55,0.04-8.2,3.74-8.18,8.29
		c-0.01,2.95,1.55,5.68,4.09,7.17v6.65h2.09v2.05h4v-2.05h2.09v-6.65C21.37,18.66,22.38,17.64,23.1,16.41 M20.68,12.92
		c0,0.19-1.74,0.37-1.82,0.38c-0.1,0.23-0.22,0.44-0.37,0.63c0.25,0.54,0.46,1.11,0.62,1.68c0,0.04-0.02,0.07-0.05,0.09l-0.03,0.02
		c-0.93,0.55-1.44,0.84-1.48,0.84c-0.45-0.42-0.86-0.89-1.2-1.4c-0.24,0.03-0.49,0.03-0.73,0c-0.34,0.51-0.75,0.98-1.2,1.4
		c-0.48-0.24-0.94-0.5-1.39-0.79l-0.07-0.04l-0.05-0.03c-0.03-0.02-0.05-0.05-0.05-0.09c0.16-0.58,0.37-1.14,0.62-1.68
		c-0.15-0.2-0.27-0.41-0.37-0.63c-0.19-0.02-1.82-0.19-1.82-0.38v-1.71c0-0.19,1.74-0.37,1.82-0.38c0.1-0.22,0.22-0.44,0.37-0.63
		c-0.25-0.54-0.46-1.11-0.62-1.68c0-0.03,0.02-0.07,0.05-0.09c0.04-0.02,0.19-0.11,0.37-0.21l0.13-0.08
		c0.39-0.23,0.98-0.57,1.02-0.57c0.45,0.41,0.86,0.88,1.2,1.39h0.01c0.24-0.03,0.49-0.03,0.73,0c0.34-0.48,0.72-0.94,1.13-1.36
		l0.07-0.03c0.06,0,1.33,0.75,1.51,0.86c0.03,0.02,0.05,0.05,0.05,0.09c-0.16,0.58-0.37,1.14-0.62,1.68
		c0.15,0.2,0.27,0.41,0.37,0.63c0.18,0.02,1.82,0.19,1.82,0.38L20.68,12.92z"/>
	<path id="Path_686" d="M24.43,16.57"/>
</g>
</svg>
