<?xml version="1.0" encoding="utf-8"?>
<!-- Generator: Adobe Illustrator 25.0.0, SVG Export Plug-In . SVG Version: 6.00 Build 0)  -->
<svg version="1.1" id="Layer_1" xmlns="http://www.w3.org/2000/svg" xmlns:xlink="http://www.w3.org/1999/xlink" x="0px" y="0px"
	 viewBox="0 0 512 512" style="enable-background:new 0 0 512 512;" xml:space="preserve">
<style type="text/css">
	.st0{fill:none;}
</style>
<g>
	<path class="st0" d="M256,16.21c-64.7,0-123.46,25.8-166.63,67.61h333.27C379.46,42.01,320.7,16.21,256,16.21z"/>
	<path class="st0" d="M16.23,255.98c0,40.51,10.14,78.68,27.95,112.17V143.81C26.36,177.3,16.23,215.47,16.23,255.98z"/>
	<path class="st0" d="M465.58,139.67v136.14v96.48c19.21-34.47,30.2-74.12,30.2-116.31S484.78,174.15,465.58,139.67z"/>
	<path d="M465.58,109.24V83.82h-20.28C398.43,32.34,330.93-0.01,256-0.01S113.57,32.34,66.71,83.82H44.17v28.59
		C16.31,153.38,0,202.81,0,255.98s16.31,102.61,44.17,143.58v105.66h109.07h44.53c18.72,4.37,38.2,6.76,58.23,6.76
		s39.51-2.39,58.23-6.76h151.35V402.73C494.78,361.14,512,310.55,512,255.98S494.78,150.83,465.58,109.24z M449.35,488.99H169.47
		V292.04h279.89v90.36H254.87v16.23h193.72h0.76V488.99z M60.4,488.99V100.04h388.96v175.77H153.24v213.18H60.4z M256,16.21
		c64.7,0,123.46,25.8,166.63,67.61H89.37C132.54,42.01,191.3,16.21,256,16.21z M16.23,255.98c0-40.51,10.14-78.68,27.95-112.17
		v224.35C26.36,334.66,16.23,296.49,16.23,255.98z M465.58,275.82V139.67c19.21,34.47,30.2,74.12,30.2,116.31
		s-10.99,81.84-30.2,116.31V275.82z"/>
	<rect x="149.64" y="182.07" width="202.82" height="16.23"/>
</g>
</svg>
