<?xml version="1.0" encoding="utf-8"?>
<!-- Generator: Adobe Illustrator 25.0.0, SVG Export Plug-In . SVG Version: 6.00 Build 0)  -->
<svg version="1.1" id="Layer_1" xmlns="http://www.w3.org/2000/svg" xmlns:xlink="http://www.w3.org/1999/xlink" x="0px" y="0px"
	 viewBox="0 0 350 55.8" style="enable-background:new 0 0 350 55.8;" xml:space="preserve">
<style type="text/css">
	.st0{enable-background:new    ;}
	.st1{fill:none;}
</style>
<g>
	<g id="text">
		<g class="st0">
			<path d="M69.14,24.73v2.23h2.2c0.53,0,0.9,0.1,1.12,0.3s0.33,0.46,0.33,0.79c0,0.31-0.11,0.57-0.33,0.78
				c-0.22,0.2-0.59,0.3-1.12,0.3h-4.7c-0.53,0-0.9-0.1-1.12-0.3c-0.22-0.2-0.33-0.46-0.33-0.78c0-0.31,0.11-0.58,0.34-0.78
				c0.22-0.2,0.6-0.3,1.11-0.3h0.34v-8.5h-0.34c-0.53,0-0.9-0.1-1.12-0.3c-0.22-0.2-0.33-0.46-0.33-0.78s0.11-0.59,0.33-0.79
				s0.59-0.3,1.12-0.3l5,0.01c1.47,0,2.63,0.4,3.49,1.2c0.86,0.8,1.28,1.78,1.28,2.93c0,0.64-0.15,1.24-0.43,1.8
				c-0.22,0.42-0.58,0.84-1.1,1.26c-0.51,0.42-1.03,0.72-1.57,0.93c-0.54,0.21-1.24,0.31-2.11,0.31L69.14,24.73L69.14,24.73z
				 M69.14,22.56h2.01c0.94,0,1.7-0.21,2.25-0.64c0.55-0.42,0.83-0.94,0.83-1.54c0-0.51-0.22-0.95-0.67-1.34s-1.09-0.57-1.93-0.57
				h-2.5L69.14,22.56L69.14,22.56z"/>
			<path d="M85.37,29.14v-0.52c-0.54,0.29-1.14,0.51-1.8,0.66c-0.66,0.15-1.26,0.22-1.79,0.22c-1.16,0-2.11-0.3-2.84-0.92
				c-0.73-0.62-1.09-1.3-1.09-2.05c0-0.91,0.46-1.75,1.39-2.54c0.93-0.78,2.22-1.17,3.85-1.17c0.66,0,1.41,0.07,2.28,0.21v-0.52
				c0-0.32-0.14-0.59-0.42-0.79s-0.81-0.3-1.6-0.3c-0.65,0-1.48,0.13-2.5,0.38c-0.38,0.09-0.67,0.14-0.89,0.14
				c-0.29,0-0.54-0.1-0.74-0.31c-0.2-0.21-0.3-0.47-0.3-0.8c0-0.18,0.04-0.34,0.11-0.48c0.07-0.14,0.17-0.24,0.3-0.32
				c0.13-0.08,0.39-0.18,0.79-0.3c0.54-0.15,1.08-0.27,1.64-0.35c0.55-0.09,1.06-0.13,1.51-0.13c1.35,0,2.4,0.3,3.14,0.88
				c0.75,0.58,1.12,1.38,1.12,2.39v4.47h0.37c0.53,0,0.9,0.1,1.12,0.3s0.33,0.46,0.33,0.79c0,0.31-0.11,0.57-0.33,0.78
				c-0.22,0.2-0.59,0.3-1.12,0.3L85.37,29.14L85.37,29.14z M85.37,25.24c-0.87-0.17-1.67-0.26-2.4-0.26c-0.89,0-1.64,0.21-2.28,0.65
				c-0.4,0.28-0.59,0.55-0.59,0.84c0,0.2,0.09,0.37,0.29,0.5c0.35,0.23,0.84,0.35,1.45,0.35c0.53,0,1.12-0.1,1.77-0.3
				c0.66-0.2,1.25-0.48,1.76-0.84V25.24z"/>
			<path d="M97.53,15.39v11.57h2.6c0.53,0,0.9,0.1,1.12,0.3s0.33,0.46,0.33,0.79c0,0.31-0.11,0.57-0.33,0.78
				c-0.22,0.2-0.59,0.3-1.12,0.3h-7.39c-0.53,0-0.9-0.1-1.12-0.3c-0.22-0.2-0.33-0.46-0.33-0.78c0-0.31,0.11-0.58,0.33-0.78
				c0.22-0.2,0.59-0.3,1.12-0.3h2.6v-9.41H93.6c-0.52,0-0.89-0.1-1.11-0.3c-0.23-0.2-0.34-0.46-0.34-0.78
				c0-0.31,0.11-0.58,0.33-0.78c0.22-0.2,0.59-0.3,1.12-0.3H97.53z"/>
			<path d="M111.41,29.14v-0.52c-0.54,0.29-1.14,0.51-1.8,0.66c-0.66,0.15-1.26,0.22-1.79,0.22c-1.16,0-2.11-0.3-2.84-0.92
				c-0.73-0.62-1.09-1.3-1.09-2.05c0-0.91,0.46-1.75,1.39-2.54c0.93-0.78,2.22-1.17,3.85-1.17c0.66,0,1.41,0.07,2.28,0.21v-0.52
				c0-0.32-0.14-0.59-0.42-0.79c-0.28-0.2-0.81-0.3-1.6-0.3c-0.65,0-1.48,0.13-2.5,0.38c-0.38,0.09-0.67,0.14-0.89,0.14
				c-0.29,0-0.54-0.1-0.74-0.31c-0.2-0.21-0.3-0.47-0.3-0.8c0-0.18,0.04-0.34,0.11-0.48c0.07-0.14,0.17-0.24,0.3-0.32
				c0.13-0.08,0.39-0.18,0.79-0.3c0.54-0.15,1.08-0.27,1.64-0.35c0.55-0.09,1.06-0.13,1.51-0.13c1.35,0,2.4,0.3,3.14,0.88
				c0.75,0.58,1.12,1.38,1.12,2.39v4.47h0.37c0.53,0,0.9,0.1,1.12,0.3s0.33,0.46,0.33,0.79c0,0.31-0.11,0.57-0.33,0.78
				c-0.22,0.2-0.59,0.3-1.12,0.3L111.41,29.14L111.41,29.14z M111.41,25.24c-0.87-0.17-1.67-0.26-2.4-0.26
				c-0.89,0-1.64,0.21-2.28,0.65c-0.4,0.28-0.59,0.55-0.59,0.84c0,0.2,0.09,0.37,0.29,0.5c0.35,0.23,0.84,0.35,1.45,0.35
				c0.53,0,1.12-0.1,1.77-0.3c0.66-0.2,1.25-0.48,1.76-0.84V25.24z"/>
			<path d="M120.28,19.52v0.73c0.4-0.34,0.83-0.59,1.31-0.77c0.48-0.17,1-0.26,1.55-0.26c1.28,0,2.3,0.4,3.05,1.2
				c0.59,0.64,0.89,1.47,0.89,2.5v4.03c0.46,0,0.79,0.1,1.02,0.3c0.22,0.2,0.33,0.46,0.33,0.79c0,0.31-0.11,0.57-0.33,0.78
				c-0.22,0.2-0.59,0.3-1.12,0.3h-1.96c-0.53,0-0.9-0.1-1.12-0.3c-0.22-0.2-0.33-0.46-0.33-0.78c0-0.31,0.11-0.58,0.33-0.78
				c0.22-0.2,0.55-0.3,1.02-0.3v-4.1c0-0.47-0.13-0.82-0.38-1.03c-0.33-0.29-0.83-0.42-1.5-0.42c-0.5,0-0.94,0.1-1.32,0.3
				c-0.38,0.19-0.86,0.61-1.44,1.24v4.03c0.55,0,0.91,0.06,1.08,0.16c0.34,0.21,0.52,0.53,0.52,0.93c0,0.31-0.11,0.57-0.33,0.78
				c-0.22,0.2-0.59,0.3-1.12,0.3h-2.47c-0.53,0-0.9-0.1-1.12-0.3c-0.22-0.2-0.33-0.46-0.33-0.78c0-0.4,0.17-0.7,0.51-0.92
				c0.17-0.11,0.54-0.16,1.09-0.16v-5.27c-0.46,0-0.79-0.1-1.02-0.3c-0.22-0.2-0.33-0.46-0.33-0.78c0-0.31,0.11-0.58,0.33-0.78
				c0.22-0.2,0.59-0.3,1.12-0.3h2.07V19.52z"/>
			<path d="M140.49,15.39v11.57h0.37c0.52,0,0.89,0.1,1.12,0.3c0.22,0.2,0.34,0.46,0.34,0.79c0,0.31-0.11,0.57-0.33,0.78
				c-0.22,0.2-0.59,0.3-1.12,0.3h-2.54v-0.53c-0.5,0.29-1.02,0.51-1.55,0.66c-0.54,0.15-1.1,0.22-1.68,0.22
				c-1.63,0-2.95-0.47-3.94-1.41c-1-0.94-1.5-2.11-1.5-3.53c0-1.47,0.53-2.72,1.57-3.76c1.04-1.03,2.32-1.56,3.82-1.56
				c0.56,0,1.12,0.08,1.66,0.26c0.54,0.18,1.08,0.43,1.61,0.78v-2.71h-0.37c-0.53,0-0.9-0.1-1.12-0.3c-0.22-0.2-0.33-0.46-0.33-0.78
				c0-0.32,0.11-0.59,0.33-0.78c0.22-0.2,0.59-0.3,1.12-0.3H140.49z M138.31,24.61c0-0.9-0.31-1.65-0.94-2.28
				c-0.63-0.62-1.39-0.93-2.31-0.93c-0.9,0-1.67,0.31-2.3,0.93c-0.63,0.62-0.94,1.37-0.94,2.24c0,0.79,0.29,1.45,0.85,1.97
				c0.56,0.51,1.37,0.77,2.39,0.77s1.82-0.26,2.39-0.77C138.02,26.03,138.31,25.39,138.31,24.61z"/>
			<path d="M153.97,25.43h-8.91c0.22,0.56,0.63,1.02,1.2,1.37c0.57,0.35,1.36,0.52,2.34,0.52c0.8,0,1.87-0.18,3.21-0.52
				c0.55-0.14,0.93-0.21,1.14-0.21c0.29,0,0.54,0.1,0.73,0.3c0.19,0.2,0.3,0.46,0.3,0.78c0,0.29-0.1,0.53-0.31,0.72
				c-0.29,0.26-0.97,0.51-2.07,0.75c-1.1,0.24-2.15,0.35-3.16,0.35c-1.74,0-3.13-0.49-4.17-1.48c-1.04-0.98-1.56-2.19-1.56-3.62
				c0-1.52,0.56-2.77,1.69-3.72s2.43-1.43,3.9-1.43c0.89,0,1.69,0.16,2.43,0.46c0.74,0.31,1.28,0.65,1.64,1.01
				c0.51,0.53,0.93,1.17,1.26,1.94c0.22,0.54,0.34,1.15,0.34,1.87V25.43z M151.57,23.26c-0.33-0.62-0.77-1.09-1.3-1.39
				c-0.54-0.3-1.17-0.46-1.92-0.46c-0.74,0-1.37,0.16-1.91,0.46c-0.54,0.3-0.98,0.78-1.31,1.39H151.57z"/>
			<path d="M161.09,19.52v1.36c0.91-0.66,1.63-1.1,2.15-1.31c0.52-0.21,1.02-0.33,1.48-0.33c0.71,0,1.39,0.26,2.06,0.78
				c0.45,0.35,0.67,0.71,0.67,1.08c0,0.31-0.11,0.57-0.32,0.78c-0.21,0.21-0.47,0.32-0.78,0.32c-0.27,0-0.55-0.14-0.85-0.41
				s-0.56-0.41-0.79-0.41c-0.3,0-0.76,0.19-1.36,0.57c-0.6,0.38-1.36,0.95-2.26,1.72v3.28h3.09c0.53,0,0.9,0.1,1.12,0.3
				c0.22,0.2,0.33,0.46,0.33,0.79c0,0.31-0.11,0.57-0.33,0.78c-0.22,0.2-0.59,0.3-1.12,0.3h-6.56c-0.53,0-0.9-0.1-1.12-0.3
				c-0.22-0.2-0.33-0.46-0.33-0.78c0-0.31,0.11-0.58,0.33-0.78c0.22-0.2,0.59-0.3,1.12-0.3h1.29V21.7h-0.78
				c-0.53,0-0.9-0.1-1.12-0.3c-0.22-0.2-0.33-0.46-0.33-0.78c0-0.31,0.11-0.58,0.33-0.78c0.22-0.2,0.59-0.3,1.12-0.3L161.09,19.52
				L161.09,19.52z"/>
			<path d="M190.99,16.84c0.14-0.18,0.28-0.32,0.44-0.42c0.16-0.09,0.33-0.14,0.52-0.14c0.31,0,0.58,0.11,0.78,0.33
				c0.2,0.22,0.3,0.59,0.3,1.12v1.85c0,0.53-0.1,0.9-0.3,1.12s-0.46,0.33-0.78,0.33c-0.29,0-0.53-0.08-0.7-0.24
				c-0.18-0.17-0.3-0.46-0.39-0.91c-0.05-0.3-0.15-0.53-0.3-0.69c-0.29-0.31-0.69-0.57-1.21-0.77c-0.52-0.19-1.04-0.29-1.56-0.29
				c-0.65,0-1.25,0.14-1.79,0.42c-0.54,0.29-1.02,0.74-1.44,1.38c-0.42,0.64-0.63,1.39-0.63,2.27v1.41c0,1.04,0.38,1.92,1.14,2.61
				c0.76,0.7,1.81,1.05,3.16,1.05c0.8,0,1.49-0.11,2.04-0.33c0.32-0.13,0.67-0.38,1.03-0.76c0.22-0.22,0.41-0.37,0.53-0.44
				c0.13-0.06,0.27-0.1,0.43-0.1c0.29,0,0.54,0.11,0.77,0.33c0.22,0.22,0.33,0.48,0.33,0.78c0,0.3-0.15,0.62-0.44,0.95
				c-0.43,0.5-0.99,0.89-1.66,1.16c-0.91,0.38-1.92,0.57-3.02,0.57c-1.28,0-2.45-0.27-3.47-0.79c-0.83-0.42-1.54-1.09-2.13-2
				c-0.58-0.91-0.88-1.91-0.88-2.99v-1.47c0-1.13,0.26-2.19,0.78-3.16c0.53-0.98,1.26-1.74,2.19-2.26c0.93-0.53,1.92-0.79,2.96-0.79
				c0.63,0,1.22,0.07,1.76,0.22C190,16.32,190.51,16.55,190.99,16.84z"/>
			<path d="M206.24,24.5c0,0.83-0.23,1.64-0.69,2.42c-0.46,0.78-1.15,1.4-2.07,1.87c-0.91,0.46-1.87,0.69-2.86,0.69
				s-1.94-0.23-2.84-0.68c-0.9-0.45-1.6-1.08-2.07-1.86c-0.47-0.78-0.71-1.61-0.71-2.46c0-0.87,0.24-1.73,0.72-2.56
				c0.48-0.84,1.17-1.5,2.07-1.98c0.9-0.48,1.84-0.72,2.83-0.72c0.99,0,1.94,0.25,2.85,0.74c0.91,0.49,1.61,1.15,2.07,1.99
				C206.01,22.78,206.24,23.63,206.24,24.5z M204.07,24.51c0-0.7-0.25-1.34-0.75-1.93c-0.68-0.79-1.59-1.19-2.71-1.19
				c-0.98,0-1.8,0.31-2.46,0.94c-0.66,0.63-0.99,1.36-0.99,2.18c0,0.67,0.33,1.31,1,1.9c0.66,0.59,1.48,0.89,2.45,0.89
				c0.98,0,1.79-0.3,2.46-0.89C203.74,25.83,204.07,25.2,204.07,24.51z"/>
			<path d="M211.42,19.52v0.73c0.4-0.34,0.83-0.59,1.31-0.77c0.48-0.17,1-0.26,1.55-0.26c1.28,0,2.3,0.4,3.05,1.2
				c0.59,0.64,0.89,1.47,0.89,2.5v4.03c0.46,0,0.79,0.1,1.02,0.3c0.22,0.2,0.33,0.46,0.33,0.79c0,0.31-0.11,0.57-0.33,0.78
				c-0.22,0.2-0.59,0.3-1.12,0.3h-1.96c-0.53,0-0.9-0.1-1.12-0.3c-0.22-0.2-0.33-0.46-0.33-0.78c0-0.31,0.11-0.58,0.33-0.78
				c0.22-0.2,0.55-0.3,1.02-0.3v-4.1c0-0.47-0.13-0.82-0.38-1.03c-0.33-0.29-0.83-0.42-1.5-0.42c-0.5,0-0.94,0.1-1.32,0.3
				c-0.38,0.19-0.86,0.61-1.44,1.24v4.03c0.55,0,0.91,0.06,1.08,0.16c0.34,0.21,0.52,0.53,0.52,0.93c0,0.31-0.11,0.57-0.33,0.78
				c-0.22,0.2-0.59,0.3-1.12,0.3h-2.47c-0.53,0-0.9-0.1-1.12-0.3c-0.22-0.2-0.33-0.46-0.33-0.78c0-0.4,0.17-0.7,0.51-0.92
				c0.17-0.11,0.54-0.16,1.09-0.16v-5.27c-0.46,0-0.79-0.1-1.02-0.3c-0.22-0.2-0.33-0.46-0.33-0.78c0-0.31,0.11-0.58,0.33-0.78
				c0.22-0.2,0.59-0.3,1.12-0.3h2.07V19.52z"/>
			<path d="M228.98,22.06c-0.35-0.22-0.72-0.39-1.12-0.49c-0.39-0.11-0.79-0.17-1.22-0.17c-0.84,0-1.5,0.14-2,0.42
				c-0.22,0.12-0.33,0.25-0.33,0.39c0,0.17,0.15,0.32,0.44,0.48c0.22,0.11,0.73,0.22,1.51,0.33c1.44,0.19,2.45,0.4,3.01,0.59
				c0.74,0.26,1.31,0.65,1.72,1.16c0.41,0.52,0.6,1.06,0.6,1.63c0,0.78-0.34,1.43-1.02,1.95c-0.98,0.76-2.25,1.14-3.82,1.14
				c-0.63,0-1.21-0.06-1.75-0.17c-0.54-0.11-1.02-0.27-1.47-0.48c-0.1,0.09-0.22,0.17-0.34,0.21c-0.12,0.05-0.24,0.07-0.37,0.07
				c-0.34,0-0.61-0.11-0.81-0.33s-0.3-0.59-0.3-1.12v-0.73c0-0.53,0.1-0.9,0.3-1.12s0.46-0.33,0.78-0.33c0.26,0,0.48,0.07,0.66,0.22
				c0.18,0.15,0.31,0.4,0.42,0.75c0.33,0.29,0.73,0.5,1.2,0.64c0.46,0.15,1.01,0.22,1.61,0.22c1,0,1.77-0.16,2.32-0.46
				c0.26-0.16,0.39-0.31,0.39-0.49c0-0.29-0.18-0.52-0.56-0.7c-0.38-0.18-1.14-0.34-2.32-0.46c-1.75-0.18-2.91-0.54-3.5-1.06
				c-0.59-0.52-0.88-1.15-0.88-1.91c0-0.78,0.33-1.42,0.99-1.94c0.89-0.7,2.06-1.06,3.5-1.06c0.5,0,0.98,0.05,1.45,0.14
				c0.46,0.09,0.9,0.24,1.33,0.44c0.14-0.1,0.26-0.18,0.38-0.22c0.12-0.05,0.22-0.07,0.32-0.07c0.3,0,0.54,0.11,0.74,0.33
				c0.19,0.22,0.3,0.59,0.3,1.12v0.53c0,0.47-0.06,0.79-0.17,0.96c-0.23,0.32-0.54,0.49-0.92,0.49c-0.26,0-0.49-0.08-0.69-0.24
				C229.17,22.54,229.05,22.33,228.98,22.06z"/>
			<path d="M244.27,19.52v7.45c0.46,0,0.79,0.1,1.02,0.3c0.22,0.2,0.33,0.46,0.33,0.78c0,0.31-0.11,0.57-0.33,0.78
				c-0.22,0.2-0.59,0.3-1.12,0.3h-2.07v-0.5c-0.62,0.29-1.22,0.5-1.78,0.64c-0.56,0.14-1.1,0.21-1.61,0.21
				c-0.71,0-1.33-0.15-1.86-0.45c-0.53-0.3-0.93-0.71-1.24-1.25c-0.22-0.38-0.33-0.86-0.33-1.43v-4.67h-0.37
				c-0.53,0-0.9-0.1-1.12-0.3c-0.22-0.2-0.33-0.46-0.33-0.78c0-0.31,0.11-0.58,0.33-0.78c0.22-0.2,0.59-0.3,1.12-0.3h2.54v6.46
				c0,0.46,0.11,0.79,0.33,1.02c0.22,0.21,0.56,0.32,1.02,0.32c0.43,0,0.9-0.08,1.41-0.26c0.51-0.18,1.13-0.49,1.87-0.94v-4.43
				h-0.78c-0.53,0-0.9-0.1-1.12-0.3c-0.22-0.2-0.33-0.46-0.33-0.78c0-0.31,0.11-0.58,0.33-0.78c0.22-0.2,0.59-0.3,1.12-0.3
				C241.32,19.52,244.27,19.52,244.27,19.52z"/>
			<path d="M253.77,15.39v11.57h2.6c0.53,0,0.9,0.1,1.12,0.3c0.22,0.2,0.33,0.46,0.33,0.79c0,0.31-0.11,0.57-0.33,0.78
				c-0.22,0.2-0.59,0.3-1.12,0.3h-7.39c-0.53,0-0.9-0.1-1.12-0.3c-0.22-0.2-0.33-0.46-0.33-0.78c0-0.31,0.11-0.58,0.33-0.78
				c0.22-0.2,0.59-0.3,1.12-0.3h2.6v-9.41h-1.75c-0.52,0-0.89-0.1-1.11-0.3c-0.23-0.2-0.34-0.46-0.34-0.78
				c0-0.31,0.11-0.58,0.33-0.78c0.22-0.2,0.59-0.3,1.12-0.3H253.77z"/>
			<path d="M265.17,21.69v4.36c0,0.46,0.09,0.78,0.29,0.92c0.3,0.23,0.83,0.35,1.59,0.35c1.11,0,2.13-0.24,3.07-0.71
				c0.36-0.18,0.65-0.28,0.85-0.28c0.29,0,0.53,0.11,0.74,0.31c0.21,0.21,0.31,0.47,0.31,0.78c0,0.29-0.11,0.53-0.34,0.73
				c-0.35,0.33-1.03,0.64-2.05,0.91c-1.02,0.28-1.88,0.42-2.58,0.42c-1.35,0-2.36-0.3-3.04-0.88S263,27.3,263,26.46v-4.77h-0.78
				c-0.53,0-0.9-0.1-1.12-0.3c-0.22-0.2-0.33-0.46-0.33-0.78c0-0.31,0.11-0.58,0.33-0.78c0.22-0.2,0.59-0.3,1.12-0.3H263v-1.96
				c0-0.53,0.1-0.9,0.3-1.12s0.46-0.33,0.78-0.33c0.31,0,0.58,0.11,0.78,0.33c0.2,0.22,0.3,0.59,0.3,1.12v1.96h4.02
				c0.53,0,0.9,0.1,1.12,0.3c0.22,0.2,0.33,0.46,0.33,0.78c0,0.31-0.11,0.58-0.33,0.78c-0.22,0.2-0.59,0.3-1.12,0.3H265.17z"/>
			<path d="M279.8,19.52v7.45h2.6c0.53,0,0.9,0.1,1.12,0.3s0.33,0.46,0.33,0.79c0,0.31-0.11,0.57-0.33,0.78
				c-0.22,0.2-0.59,0.3-1.12,0.3h-7.39c-0.53,0-0.9-0.1-1.12-0.3c-0.22-0.2-0.33-0.46-0.33-0.78c0-0.31,0.11-0.58,0.33-0.78
				c0.22-0.2,0.59-0.3,1.12-0.3h2.6v-5.27h-1.75c-0.52,0-0.89-0.1-1.11-0.3c-0.23-0.2-0.34-0.46-0.34-0.78
				c0-0.31,0.11-0.58,0.33-0.78c0.22-0.2,0.59-0.3,1.12-0.3h3.92V19.52z M279.51,15.39v2.3h-2.59v-2.3H279.51z"/>
			<path d="M289.54,19.52v0.73c0.4-0.34,0.83-0.59,1.31-0.77c0.48-0.17,1-0.26,1.55-0.26c1.28,0,2.3,0.4,3.05,1.2
				c0.59,0.64,0.89,1.47,0.89,2.5v4.03c0.46,0,0.79,0.1,1.02,0.3c0.22,0.2,0.33,0.46,0.33,0.79c0,0.31-0.11,0.57-0.33,0.78
				c-0.22,0.2-0.59,0.3-1.12,0.3h-1.96c-0.53,0-0.9-0.1-1.12-0.3c-0.22-0.2-0.33-0.46-0.33-0.78c0-0.31,0.11-0.58,0.33-0.78
				c0.22-0.2,0.55-0.3,1.02-0.3v-4.1c0-0.47-0.13-0.82-0.38-1.03c-0.33-0.29-0.83-0.42-1.5-0.42c-0.5,0-0.94,0.1-1.32,0.3
				c-0.38,0.19-0.86,0.61-1.44,1.24v4.03c0.55,0,0.91,0.06,1.08,0.16c0.34,0.21,0.52,0.53,0.52,0.93c0,0.31-0.11,0.57-0.33,0.78
				c-0.22,0.2-0.59,0.3-1.12,0.3h-2.47c-0.53,0-0.9-0.1-1.12-0.3c-0.22-0.2-0.33-0.46-0.33-0.78c0-0.4,0.17-0.7,0.51-0.92
				c0.17-0.11,0.54-0.16,1.09-0.16v-5.27c-0.46,0-0.79-0.1-1.02-0.3c-0.22-0.2-0.33-0.46-0.33-0.78c0-0.31,0.11-0.58,0.33-0.78
				c0.22-0.2,0.59-0.3,1.12-0.3h2.07V19.52z"/>
			<path d="M307.15,20.16v-0.65h2.54c0.53,0,0.9,0.1,1.12,0.3c0.22,0.2,0.33,0.46,0.33,0.78c0,0.31-0.11,0.58-0.33,0.78
				c-0.22,0.2-0.59,0.3-1.12,0.3h-0.37v7.9c0,0.77-0.16,1.43-0.48,1.99c-0.32,0.56-0.81,1.06-1.48,1.47
				c-0.66,0.41-1.41,0.62-2.24,0.62h-2.46c-0.53,0-0.9-0.1-1.12-0.3c-0.22-0.2-0.33-0.46-0.33-0.78c0-0.32,0.11-0.59,0.33-0.78
				c0.22-0.2,0.59-0.3,1.12-0.3h2.39c0.66,0,1.18-0.18,1.55-0.54c0.37-0.36,0.55-0.81,0.55-1.37v-1.07
				c-0.48,0.31-0.97,0.54-1.47,0.7c-0.5,0.16-1.01,0.23-1.53,0.23c-1.48,0-2.71-0.49-3.71-1.48c-1-0.99-1.5-2.2-1.5-3.65
				c0-1.46,0.5-2.68,1.5-3.66c1-0.99,2.23-1.48,3.71-1.48c0.55,0,1.07,0.08,1.57,0.24C306.23,19.59,306.7,19.83,307.15,20.16z
				 M307.14,24.33c0-0.8-0.3-1.49-0.89-2.08c-0.59-0.58-1.3-0.88-2.12-0.88c-0.82,0-1.53,0.3-2.12,0.88
				c-0.59,0.59-0.89,1.27-0.89,2.08s0.3,1.5,0.89,2.08c0.59,0.58,1.3,0.88,2.12,0.88c0.83,0,1.53-0.3,2.12-0.88
				C306.85,25.82,307.14,25.13,307.14,24.33z"/>
			<path d="M333.46,25.64h-5.27l-0.53,1.32h0.53c0.53,0,0.9,0.1,1.12,0.3s0.33,0.46,0.33,0.79c0,0.31-0.11,0.57-0.33,0.78
				c-0.22,0.2-0.59,0.3-1.12,0.3h-2.93c-0.53,0-0.9-0.1-1.12-0.3c-0.22-0.2-0.33-0.46-0.33-0.78s0.12-0.59,0.35-0.79
				c0.23-0.2,0.62-0.3,1.15-0.29l3.41-8.49h-1.42c-0.53,0-0.9-0.1-1.12-0.3c-0.22-0.2-0.33-0.46-0.33-0.78s0.11-0.59,0.33-0.79
				c0.22-0.2,0.59-0.3,1.12-0.3L332,16.3l4.32,10.66c0.51,0,0.84,0.06,1.01,0.17c0.32,0.23,0.49,0.54,0.49,0.92
				c0,0.31-0.11,0.57-0.33,0.78c-0.22,0.2-0.59,0.3-1.12,0.3h-2.93c-0.53,0-0.9-0.1-1.12-0.3c-0.22-0.2-0.33-0.46-0.33-0.78
				c0-0.31,0.11-0.58,0.33-0.78c0.22-0.2,0.59-0.3,1.12-0.3h0.53L333.46,25.64z M332.56,23.47l-1.75-4.3l-1.75,4.3H332.56z"/>
			<path d="M339.39,26.96v-8.49h-0.34c-0.53,0-0.9-0.1-1.12-0.3c-0.22-0.2-0.33-0.46-0.33-0.78s0.11-0.59,0.33-0.79
				c0.22-0.2,0.59-0.3,1.12-0.3h5.45c1.3,0,2.35,0.36,3.14,1.09c0.79,0.72,1.19,1.58,1.19,2.58c0,0.47-0.09,0.91-0.28,1.34
				c-0.18,0.42-0.46,0.8-0.84,1.15c0.68,0.41,1.2,0.89,1.54,1.43c0.34,0.54,0.52,1.16,0.52,1.86c0,0.55-0.12,1.06-0.37,1.53
				c-0.18,0.36-0.41,0.65-0.67,0.86c-0.36,0.3-0.8,0.54-1.32,0.73c-0.53,0.18-1.17,0.28-1.96,0.28h-6.38c-0.53,0-0.9-0.1-1.12-0.3
				c-0.22-0.2-0.33-0.46-0.33-0.78c0-0.31,0.11-0.58,0.34-0.78c0.23-0.2,0.6-0.3,1.12-0.3L339.39,26.96L339.39,26.96z M341.56,21.62
				h2.38c0.86,0,1.56-0.21,2.13-0.65c0.38-0.29,0.57-0.65,0.57-1.08c0-0.38-0.18-0.71-0.54-1s-0.93-0.42-1.72-0.42h-2.83V21.62z
				 M341.56,26.96h3.75c0.89,0,1.5-0.13,1.87-0.39c0.28-0.19,0.42-0.48,0.42-0.85c0-0.43-0.27-0.87-0.81-1.29s-1.32-0.64-2.35-0.64
				h-2.87V26.96z"/>
		</g>
		<g class="st0">
			<path d="M70.81,48.65h-3.99l-0.4,1h0.4c0.4,0,0.67,0.07,0.84,0.23c0.17,0.15,0.25,0.35,0.25,0.6c0,0.24-0.08,0.43-0.25,0.59
				c-0.17,0.16-0.45,0.23-0.84,0.23h-2.21c-0.4,0-0.67-0.07-0.84-0.23c-0.17-0.16-0.25-0.35-0.25-0.6c0-0.25,0.09-0.44,0.27-0.6
				c0.18-0.16,0.47-0.23,0.87-0.21l2.58-6.42h-1.07c-0.4,0-0.67-0.07-0.84-0.23c-0.17-0.16-0.25-0.35-0.25-0.6s0.08-0.44,0.25-0.6
				s0.45-0.23,0.84-0.23l3.55,0.01l3.27,8.06c0.39,0,0.64,0.05,0.76,0.13c0.25,0.18,0.37,0.41,0.37,0.69c0,0.24-0.08,0.43-0.25,0.59
				s-0.44,0.23-0.84,0.23h-2.21c-0.4,0-0.67-0.07-0.84-0.23c-0.17-0.16-0.25-0.35-0.25-0.6c0-0.24,0.08-0.43,0.25-0.59
				c0.17-0.16,0.45-0.23,0.84-0.23h0.4L70.81,48.65z M70.12,47.01l-1.32-3.25l-1.33,3.25H70.12z"/>
			<path d="M82.4,40.91v8.73h0.28c0.39,0,0.67,0.07,0.84,0.23c0.17,0.15,0.26,0.35,0.26,0.6c0,0.24-0.08,0.43-0.25,0.59
				c-0.17,0.16-0.45,0.23-0.84,0.23h-1.92v-0.4c-0.37,0.22-0.77,0.39-1.17,0.5c-0.41,0.11-0.83,0.17-1.26,0.17
				c-1.23,0-2.23-0.36-2.97-1.07c-0.75-0.71-1.13-1.6-1.13-2.66c0-1.11,0.4-2.06,1.18-2.84s1.75-1.17,2.89-1.17
				c0.42,0,0.85,0.06,1.26,0.19s0.81,0.32,1.22,0.59v-2.04H80.5c-0.4,0-0.67-0.07-0.84-0.23c-0.17-0.16-0.25-0.35-0.25-0.59
				c0-0.25,0.08-0.44,0.25-0.6c0.17-0.16,0.45-0.23,0.84-0.23H82.4z M80.76,47.87c0-0.67-0.24-1.25-0.71-1.72s-1.05-0.7-1.75-0.7
				c-0.68,0-1.26,0.23-1.74,0.7c-0.47,0.47-0.71,1.03-0.71,1.7c0,0.6,0.21,1.1,0.64,1.49c0.42,0.39,1.03,0.58,1.81,0.58
				c0.78,0,1.38-0.19,1.81-0.58C80.55,48.95,80.76,48.46,80.76,47.87z"/>
			<path d="M88.49,49.3l1.77-3.63c-0.43,0-0.72-0.04-0.84-0.11c-0.27-0.17-0.4-0.41-0.4-0.71c0-0.24,0.08-0.43,0.25-0.59
				c0.17-0.15,0.45-0.23,0.84-0.23h2.25c0.4,0,0.67,0.07,0.84,0.23s0.25,0.35,0.25,0.6c0,0.24-0.08,0.43-0.25,0.59
				c-0.17,0.16-0.45,0.23-0.84,0.23H92.1l-2.74,5.62h-1.71l-2.74-5.62h-0.23c-0.4,0-0.67-0.07-0.84-0.23
				c-0.17-0.16-0.25-0.35-0.25-0.6c0-0.24,0.08-0.43,0.25-0.59c0.17-0.15,0.45-0.23,0.84-0.23h2.2c0.39,0,0.66,0.07,0.84,0.23
				c0.15,0.15,0.23,0.34,0.23,0.59c0,0.3-0.13,0.54-0.39,0.69c-0.13,0.08-0.42,0.12-0.86,0.12L88.49,49.3z"/>
			<path d="M99.78,51.3v-0.39c-0.41,0.22-0.87,0.39-1.36,0.49c-0.5,0.11-0.95,0.17-1.35,0.17c-0.88,0-1.6-0.23-2.14-0.7
				c-0.55-0.46-0.82-0.98-0.82-1.55c0-0.69,0.35-1.33,1.05-1.92c0.7-0.59,1.67-0.89,2.91-0.89c0.5,0,1.07,0.06,1.72,0.16v-0.39
				c0-0.25-0.1-0.44-0.31-0.6c-0.21-0.16-0.61-0.23-1.2-0.23c-0.49,0-1.12,0.09-1.89,0.29c-0.29,0.07-0.51,0.1-0.67,0.1
				c-0.22,0-0.41-0.07-0.55-0.24c-0.15-0.16-0.23-0.36-0.23-0.6c0-0.14,0.03-0.26,0.08-0.36s0.13-0.18,0.22-0.24
				c0.09-0.06,0.3-0.14,0.6-0.22c0.41-0.11,0.82-0.2,1.24-0.27c0.42-0.06,0.8-0.1,1.14-0.1c1.02,0,1.81,0.22,2.37,0.66
				c0.56,0.44,0.84,1.04,0.84,1.8v3.38h0.28c0.4,0,0.67,0.07,0.84,0.23c0.17,0.15,0.25,0.35,0.25,0.6c0,0.24-0.08,0.43-0.25,0.59
				c-0.17,0.16-0.45,0.23-0.84,0.23L99.78,51.3L99.78,51.3z M99.78,48.35c-0.66-0.13-1.26-0.19-1.82-0.19
				c-0.66,0-1.24,0.17-1.72,0.49c-0.3,0.21-0.45,0.42-0.45,0.63c0,0.16,0.07,0.28,0.21,0.38c0.27,0.18,0.63,0.27,1.1,0.27
				c0.4,0,0.84-0.07,1.34-0.23c0.5-0.16,0.94-0.37,1.33-0.63L99.78,48.35L99.78,48.35z"/>
			<path d="M106.48,44.03v0.55c0.3-0.26,0.63-0.45,0.99-0.57c0.36-0.13,0.75-0.19,1.17-0.19c0.97,0,1.74,0.3,2.31,0.9
				c0.45,0.48,0.67,1.11,0.67,1.88v3.05c0.35,0,0.6,0.07,0.77,0.23c0.17,0.15,0.25,0.35,0.25,0.6c0,0.24-0.08,0.43-0.25,0.59
				c-0.17,0.16-0.45,0.23-0.84,0.23h-1.48c-0.4,0-0.67-0.07-0.84-0.23c-0.17-0.16-0.25-0.35-0.25-0.6c0-0.24,0.08-0.43,0.25-0.59
				c0.17-0.16,0.42-0.23,0.77-0.23v-3.09c0-0.36-0.09-0.62-0.29-0.78c-0.25-0.21-0.63-0.32-1.13-0.32c-0.38,0-0.71,0.07-1,0.22
				c-0.29,0.15-0.65,0.46-1.08,0.93v3.05c0.42,0,0.69,0.04,0.81,0.12c0.26,0.16,0.39,0.4,0.39,0.7c0,0.24-0.08,0.43-0.25,0.59
				c-0.17,0.16-0.45,0.23-0.84,0.23h-1.87c-0.4,0-0.67-0.07-0.84-0.23c-0.17-0.16-0.25-0.35-0.25-0.6c0-0.3,0.13-0.54,0.39-0.69
				c0.13-0.08,0.41-0.12,0.82-0.12v-3.99c-0.35,0-0.6-0.07-0.77-0.23c-0.17-0.16-0.25-0.35-0.25-0.59s0.08-0.43,0.25-0.59
				c0.17-0.15,0.45-0.23,0.84-0.23L106.48,44.03L106.48,44.03z"/>
			<path d="M120.53,44.33c0.19-0.18,0.4-0.28,0.61-0.28c0.23,0,0.42,0.08,0.58,0.25c0.16,0.17,0.23,0.44,0.23,0.84v1.05
				c0,0.4-0.07,0.67-0.23,0.84c-0.15,0.17-0.35,0.25-0.6,0.25c-0.22,0-0.42-0.06-0.57-0.19c-0.11-0.09-0.2-0.3-0.27-0.59
				c-0.06-0.3-0.22-0.52-0.46-0.66c-0.43-0.26-0.99-0.39-1.65-0.39c-0.78,0-1.39,0.23-1.87,0.68c-0.47,0.45-0.7,1.02-0.7,1.72
				c0,0.64,0.22,1.14,0.67,1.51c0.45,0.37,1.19,0.55,2.23,0.55c0.68,0,1.24-0.06,1.67-0.2c0.26-0.08,0.5-0.23,0.73-0.43
				c0.23-0.2,0.43-0.3,0.63-0.3c0.22,0,0.42,0.08,0.58,0.25c0.17,0.17,0.24,0.36,0.24,0.58c0,0.36-0.25,0.71-0.75,1.03
				c-0.74,0.49-1.81,0.73-3.23,0.73c-1.27,0-2.27-0.27-2.97-0.79c-0.96-0.71-1.44-1.68-1.44-2.91c0-1.17,0.39-2.13,1.17-2.9
				c0.78-0.77,1.79-1.14,3.05-1.14c0.45,0,0.88,0.05,1.26,0.13S120.2,44.15,120.53,44.33z"/>
			<path d="M131.93,48.49h-6.73c0.18,0.42,0.47,0.77,0.9,1.03c0.43,0.26,1.02,0.39,1.76,0.39c0.61,0,1.41-0.13,2.43-0.39
				c0.42-0.11,0.7-0.16,0.87-0.16c0.22,0,0.41,0.07,0.55,0.23c0.15,0.16,0.22,0.35,0.22,0.58c0,0.21-0.08,0.4-0.24,0.54
				c-0.21,0.19-0.73,0.39-1.56,0.56c-0.83,0.18-1.62,0.27-2.38,0.27c-1.31,0-2.36-0.37-3.15-1.12c-0.78-0.74-1.18-1.65-1.18-2.73
				c0-1.15,0.42-2.09,1.27-2.82c0.85-0.72,1.83-1.08,2.95-1.08c0.66,0,1.28,0.12,1.84,0.35c0.55,0.23,0.97,0.49,1.25,0.76
				c0.39,0.4,0.7,0.89,0.95,1.47c0.17,0.41,0.26,0.88,0.26,1.41L131.93,48.49L131.93,48.49z M130.11,46.85
				c-0.25-0.47-0.58-0.82-0.99-1.05s-0.89-0.35-1.45-0.35c-0.55,0-1.03,0.12-1.44,0.35s-0.74,0.58-1,1.05H130.11z"/>
			<path d="M145.09,50.87c-0.15,0.18-0.26,0.28-0.35,0.33c-0.09,0.05-0.19,0.07-0.32,0.07c-0.25,0-0.45-0.08-0.6-0.25
				c-0.15-0.17-0.23-0.44-0.23-0.84v-1.11c0-0.4,0.07-0.67,0.23-0.84c0.15-0.17,0.35-0.25,0.6-0.25c0.19,0,0.35,0.05,0.48,0.15
				s0.23,0.27,0.3,0.51c0.06,0.24,0.14,0.4,0.21,0.48c0.16,0.17,0.42,0.33,0.82,0.51s0.83,0.26,1.29,0.26c0.73,0,1.33-0.17,1.8-0.51
				c0.3-0.21,0.45-0.46,0.45-0.77c0-0.2-0.07-0.4-0.21-0.57c-0.15-0.18-0.38-0.32-0.7-0.44c-0.21-0.08-0.69-0.19-1.43-0.33
				c-0.9-0.17-1.57-0.37-2.03-0.6c-0.46-0.23-0.82-0.56-1.09-0.99s-0.4-0.89-0.4-1.38c0-0.78,0.33-1.47,0.99-2.06
				c0.66-0.59,1.51-0.89,2.56-0.89c0.42,0,0.81,0.05,1.17,0.14c0.36,0.09,0.68,0.24,0.98,0.42c0.21-0.2,0.42-0.31,0.64-0.31
				c0.24,0,0.43,0.08,0.59,0.25c0.15,0.17,0.23,0.44,0.23,0.84v1.23c0,0.4-0.07,0.67-0.23,0.84c-0.16,0.17-0.35,0.25-0.59,0.25
				c-0.2,0-0.38-0.06-0.53-0.18c-0.12-0.09-0.2-0.27-0.27-0.54c-0.06-0.27-0.13-0.46-0.22-0.58c-0.16-0.2-0.39-0.37-0.69-0.51
				c-0.31-0.14-0.66-0.2-1.07-0.2c-0.59,0-1.06,0.14-1.4,0.42c-0.34,0.28-0.52,0.56-0.52,0.86c0,0.2,0.07,0.4,0.21,0.59
				c0.14,0.19,0.35,0.34,0.62,0.44c0.18,0.07,0.69,0.19,1.53,0.36c0.84,0.17,1.49,0.35,1.94,0.54c0.45,0.19,0.82,0.51,1.13,0.92
				c0.3,0.42,0.45,0.92,0.45,1.5c0,0.81-0.29,1.46-0.86,1.95c-0.76,0.64-1.73,0.96-2.9,0.96c-0.45,0-0.9-0.06-1.32-0.17
				C145.91,51.26,145.49,51.1,145.09,50.87z"/>
			<path d="M156.4,51.23l-2.84-5.57c-0.27-0.04-0.47-0.12-0.61-0.27c-0.14-0.15-0.21-0.33-0.21-0.54c0-0.25,0.08-0.44,0.25-0.6
				c0.17-0.15,0.45-0.23,0.84-0.23h1.5c0.4,0,0.67,0.07,0.84,0.23c0.17,0.16,0.25,0.35,0.25,0.6c0,0.24-0.08,0.43-0.25,0.59
				c-0.17,0.16-0.43,0.23-0.79,0.23l1.94,3.77l1.92-3.77c-0.35,0-0.61-0.07-0.78-0.23c-0.17-0.16-0.25-0.35-0.25-0.6
				c0-0.24,0.08-0.43,0.25-0.59c0.17-0.15,0.45-0.23,0.84-0.23h1.54c0.39,0,0.66,0.07,0.84,0.23c0.17,0.16,0.25,0.35,0.25,0.6
				c0,0.22-0.07,0.41-0.21,0.55c-0.15,0.16-0.36,0.24-0.64,0.26l-3.76,7.41c0.41,0,0.68,0.04,0.81,0.12c0.26,0.17,0.39,0.4,0.39,0.7
				c0,0.24-0.08,0.43-0.25,0.59c-0.17,0.15-0.45,0.23-0.84,0.23h-3.57c-0.4,0-0.67-0.07-0.84-0.23c-0.17-0.16-0.25-0.35-0.25-0.59
				c0-0.25,0.08-0.44,0.25-0.6c0.17-0.16,0.45-0.23,0.84-0.23h1.63L156.4,51.23z"/>
			<path d="M168.92,45.95c-0.27-0.17-0.54-0.29-0.84-0.37s-0.6-0.12-0.92-0.12c-0.64,0-1.14,0.1-1.51,0.31
				c-0.17,0.09-0.25,0.19-0.25,0.3c0,0.12,0.11,0.24,0.33,0.36c0.18,0.08,0.55,0.17,1.14,0.25c1.09,0.15,1.85,0.3,2.27,0.45
				c0.56,0.19,0.99,0.49,1.29,0.88c0.3,0.39,0.45,0.8,0.45,1.23c0,0.59-0.26,1.08-0.78,1.47c-0.74,0.57-1.71,0.86-2.89,0.86
				c-0.47,0-0.91-0.04-1.32-0.12c-0.41-0.08-0.78-0.2-1.11-0.36c-0.08,0.06-0.17,0.12-0.26,0.16c-0.09,0.04-0.18,0.06-0.28,0.06
				c-0.26,0-0.46-0.08-0.61-0.25c-0.15-0.17-0.23-0.45-0.23-0.85v-0.55c0-0.4,0.07-0.67,0.23-0.84c0.15-0.17,0.35-0.25,0.6-0.25
				c0.19,0,0.36,0.06,0.5,0.17s0.24,0.3,0.31,0.56c0.25,0.21,0.55,0.38,0.9,0.48c0.35,0.11,0.76,0.17,1.22,0.17
				c0.75,0,1.34-0.12,1.75-0.35c0.19-0.12,0.3-0.24,0.3-0.37c0-0.21-0.14-0.39-0.42-0.53c-0.29-0.14-0.87-0.26-1.75-0.35
				c-1.32-0.14-2.2-0.41-2.64-0.8c-0.44-0.39-0.66-0.87-0.66-1.44c0-0.59,0.25-1.08,0.75-1.47c0.67-0.54,1.55-0.8,2.64-0.8
				c0.38,0,0.74,0.04,1.09,0.11s0.68,0.18,1.01,0.33c0.1-0.07,0.19-0.13,0.29-0.17c0.09-0.04,0.17-0.06,0.24-0.06
				c0.22,0,0.42,0.08,0.56,0.25c0.15,0.17,0.22,0.45,0.22,0.84v0.4c0,0.36-0.05,0.6-0.13,0.73c-0.18,0.25-0.41,0.37-0.69,0.37
				c-0.19,0-0.37-0.06-0.52-0.18S168.96,46.15,168.92,45.95z"/>
			<path d="M176.58,45.67v3.29c0,0.35,0.07,0.58,0.21,0.69c0.22,0.18,0.63,0.27,1.2,0.27c0.84,0,1.61-0.18,2.32-0.54
				c0.27-0.14,0.49-0.21,0.64-0.21c0.21,0,0.4,0.08,0.55,0.24s0.24,0.35,0.24,0.58c0,0.21-0.08,0.4-0.26,0.55
				c-0.26,0.25-0.78,0.48-1.55,0.69c-0.77,0.21-1.42,0.31-1.95,0.31c-1.02,0-1.78-0.22-2.29-0.66c-0.51-0.43-0.77-0.98-0.77-1.62
				v-3.61h-0.59c-0.4,0-0.67-0.07-0.84-0.23c-0.17-0.16-0.25-0.35-0.25-0.6c0-0.24,0.08-0.43,0.25-0.59
				c0.17-0.15,0.45-0.23,0.84-0.23h0.59v-1.48c0-0.4,0.07-0.67,0.23-0.85c0.15-0.17,0.35-0.25,0.6-0.25c0.24,0,0.43,0.08,0.59,0.25
				c0.15,0.17,0.23,0.45,0.23,0.85v1.48h3.03c0.4,0,0.67,0.07,0.84,0.23c0.17,0.16,0.25,0.35,0.25,0.6c0,0.24-0.08,0.43-0.25,0.59
				c-0.17,0.16-0.45,0.23-0.84,0.23H176.58z"/>
			<path d="M190.94,48.49h-6.73c0.18,0.42,0.47,0.77,0.9,1.03c0.43,0.26,1.02,0.39,1.76,0.39c0.61,0,1.41-0.13,2.43-0.39
				c0.42-0.11,0.7-0.16,0.87-0.16c0.22,0,0.41,0.07,0.55,0.23c0.15,0.16,0.22,0.35,0.22,0.58c0,0.21-0.08,0.4-0.24,0.54
				c-0.21,0.19-0.73,0.39-1.56,0.56c-0.83,0.18-1.62,0.27-2.38,0.27c-1.31,0-2.36-0.37-3.15-1.12c-0.78-0.74-1.18-1.65-1.18-2.73
				c0-1.15,0.42-2.09,1.27-2.82c0.85-0.72,1.83-1.08,2.95-1.08c0.66,0,1.28,0.12,1.84,0.35c0.55,0.23,0.97,0.49,1.25,0.76
				c0.39,0.4,0.7,0.89,0.95,1.47c0.17,0.41,0.26,0.88,0.26,1.41L190.94,48.49L190.94,48.49z M189.12,46.85
				c-0.25-0.47-0.58-0.82-0.99-1.05c-0.41-0.23-0.89-0.35-1.45-0.35c-0.55,0-1.03,0.12-1.44,0.35s-0.74,0.58-1,1.05H189.12z"/>
			<path d="M194.12,44.03v0.46c0.27-0.26,0.51-0.44,0.72-0.54c0.21-0.1,0.46-0.15,0.75-0.15c0.24,0,0.48,0.06,0.71,0.18
				c0.23,0.12,0.46,0.3,0.69,0.53c0.29-0.23,0.57-0.41,0.86-0.53s0.59-0.18,0.9-0.18c0.61,0,1.1,0.17,1.48,0.49
				c0.5,0.42,0.75,0.99,0.75,1.68v3.67c0.34,0,0.59,0.07,0.76,0.23c0.17,0.16,0.25,0.35,0.25,0.59c0,0.24-0.08,0.43-0.25,0.59
				c-0.17,0.16-0.44,0.23-0.84,0.23h-1.56v-5.18c0-0.25-0.05-0.42-0.14-0.52c-0.09-0.09-0.23-0.15-0.42-0.15
				c-0.18,0-0.35,0.05-0.51,0.15c-0.19,0.13-0.43,0.39-0.72,0.75v3.31c0.34,0,0.59,0.07,0.76,0.23c0.17,0.16,0.25,0.35,0.25,0.59
				c0,0.24-0.08,0.43-0.25,0.59s-0.44,0.23-0.84,0.23h-1.56v-5.18c0-0.25-0.05-0.42-0.14-0.52s-0.23-0.15-0.42-0.15
				c-0.19,0-0.38,0.06-0.57,0.18c-0.18,0.12-0.41,0.36-0.67,0.72v3.31c0.34,0,0.6,0.07,0.77,0.23c0.17,0.16,0.25,0.35,0.25,0.59
				c0,0.24-0.08,0.43-0.25,0.59c-0.17,0.16-0.45,0.23-0.84,0.23h-1.48c-0.4,0-0.67-0.07-0.84-0.23s-0.25-0.35-0.25-0.6
				c0-0.24,0.08-0.43,0.25-0.59c0.17-0.16,0.42-0.23,0.77-0.23v-3.99c-0.35,0-0.6-0.07-0.77-0.23c-0.17-0.16-0.25-0.35-0.25-0.59
				s0.08-0.43,0.25-0.59c0.17-0.15,0.45-0.23,0.84-0.23L194.12,44.03L194.12,44.03z"/>
			<path d="M208.26,45.95c-0.27-0.17-0.54-0.29-0.84-0.37s-0.6-0.12-0.92-0.12c-0.64,0-1.14,0.1-1.51,0.31
				c-0.17,0.09-0.25,0.19-0.25,0.3c0,0.12,0.11,0.24,0.33,0.36c0.18,0.08,0.55,0.17,1.14,0.25c1.09,0.15,1.85,0.3,2.27,0.45
				c0.56,0.19,0.99,0.49,1.29,0.88c0.3,0.39,0.45,0.8,0.45,1.23c0,0.59-0.26,1.08-0.78,1.47c-0.74,0.57-1.71,0.86-2.89,0.86
				c-0.47,0-0.91-0.04-1.32-0.12c-0.41-0.08-0.78-0.2-1.11-0.36c-0.08,0.06-0.17,0.12-0.26,0.16c-0.09,0.04-0.18,0.06-0.28,0.06
				c-0.26,0-0.46-0.08-0.61-0.25c-0.15-0.17-0.23-0.45-0.23-0.85v-0.55c0-0.4,0.07-0.67,0.23-0.84c0.15-0.17,0.35-0.25,0.6-0.25
				c0.19,0,0.36,0.06,0.5,0.17s0.24,0.3,0.31,0.56c0.25,0.21,0.55,0.38,0.9,0.48c0.35,0.11,0.76,0.17,1.22,0.17
				c0.75,0,1.34-0.12,1.75-0.35c0.19-0.12,0.3-0.24,0.3-0.37c0-0.21-0.14-0.39-0.42-0.53c-0.29-0.14-0.87-0.26-1.75-0.35
				c-1.32-0.14-2.2-0.41-2.64-0.8c-0.44-0.39-0.66-0.87-0.66-1.44c0-0.59,0.25-1.08,0.75-1.47c0.67-0.54,1.55-0.8,2.64-0.8
				c0.38,0,0.74,0.04,1.09,0.11s0.68,0.18,1.01,0.33c0.1-0.07,0.19-0.13,0.29-0.17c0.09-0.04,0.17-0.06,0.24-0.06
				c0.22,0,0.42,0.08,0.56,0.25c0.15,0.17,0.22,0.45,0.22,0.84v0.4c0,0.36-0.05,0.6-0.13,0.73c-0.18,0.25-0.41,0.37-0.69,0.37
				c-0.19,0-0.37-0.06-0.52-0.18C208.4,46.32,208.3,46.15,208.26,45.95z"/>
			<path d="M224.47,47.24v2.41h4.18v-0.89c0-0.4,0.07-0.67,0.23-0.85c0.15-0.17,0.35-0.25,0.6-0.25c0.24,0,0.43,0.08,0.59,0.25
				c0.15,0.17,0.23,0.45,0.23,0.85v2.53h-7.72c-0.4,0-0.67-0.07-0.84-0.23c-0.17-0.16-0.25-0.35-0.25-0.6
				c0-0.24,0.08-0.43,0.26-0.59c0.18-0.16,0.45-0.23,0.84-0.23h0.26v-6.42h-0.26c-0.4,0-0.67-0.07-0.84-0.23
				c-0.17-0.16-0.25-0.35-0.25-0.6s0.08-0.44,0.25-0.6c0.17-0.16,0.45-0.23,0.84-0.23l7.36,0.01v2.49c0,0.39-0.07,0.66-0.22,0.84
				c-0.15,0.18-0.35,0.25-0.59,0.25c-0.25,0-0.44-0.08-0.6-0.25c-0.15-0.17-0.23-0.44-0.23-0.84v-0.86h-3.82v2.37h1.44
				c0-0.42,0.04-0.7,0.12-0.82c0.17-0.26,0.4-0.39,0.7-0.39c0.24,0,0.43,0.08,0.59,0.25c0.15,0.17,0.23,0.45,0.23,0.85v1.88
				c0,0.36-0.05,0.6-0.13,0.72c-0.18,0.25-0.4,0.38-0.69,0.38c-0.3,0-0.54-0.13-0.7-0.39c-0.08-0.12-0.12-0.4-0.12-0.83
				L224.47,47.24L224.47,47.24z"/>
			<path d="M234.33,44.03v0.55c0.3-0.26,0.63-0.45,0.99-0.57c0.36-0.13,0.75-0.19,1.17-0.19c0.97,0,1.74,0.3,2.31,0.9
				c0.45,0.48,0.67,1.11,0.67,1.88v3.05c0.35,0,0.6,0.07,0.77,0.23c0.17,0.15,0.25,0.35,0.25,0.6c0,0.24-0.08,0.43-0.25,0.59
				c-0.17,0.16-0.45,0.23-0.84,0.23h-1.48c-0.4,0-0.67-0.07-0.84-0.23c-0.17-0.16-0.25-0.35-0.25-0.6c0-0.24,0.08-0.43,0.25-0.59
				c0.17-0.16,0.42-0.23,0.77-0.23v-3.09c0-0.36-0.09-0.62-0.29-0.78c-0.25-0.21-0.63-0.32-1.13-0.32c-0.38,0-0.71,0.07-1,0.22
				c-0.29,0.15-0.65,0.46-1.08,0.93v3.05c0.42,0,0.69,0.04,0.81,0.12c0.26,0.16,0.39,0.4,0.39,0.7c0,0.24-0.08,0.43-0.25,0.59
				c-0.17,0.16-0.45,0.23-0.84,0.23h-1.87c-0.4,0-0.67-0.07-0.84-0.23c-0.17-0.16-0.25-0.35-0.25-0.6c0-0.3,0.13-0.54,0.39-0.69
				c0.13-0.08,0.41-0.12,0.82-0.12v-3.99c-0.35,0-0.6-0.07-0.77-0.23c-0.17-0.16-0.25-0.35-0.25-0.59s0.08-0.43,0.25-0.59
				c0.17-0.15,0.45-0.23,0.84-0.23L234.33,44.03L234.33,44.03z"/>
			<path d="M247.64,44.51v-0.49h1.92c0.4,0,0.67,0.07,0.84,0.23c0.17,0.16,0.25,0.35,0.25,0.6c0,0.24-0.08,0.43-0.25,0.59
				c-0.17,0.16-0.45,0.23-0.84,0.23h-0.28v5.97c0,0.57-0.12,1.08-0.36,1.5c-0.24,0.42-0.62,0.8-1.12,1.11
				c-0.5,0.3-1.07,0.46-1.7,0.46h-1.86c-0.4,0-0.67-0.07-0.84-0.23c-0.17-0.16-0.25-0.35-0.25-0.59c0-0.25,0.08-0.44,0.25-0.6
				c0.17-0.16,0.45-0.23,0.84-0.23h1.81c0.5,0,0.89-0.14,1.17-0.41c0.28-0.27,0.42-0.62,0.42-1.03v-0.8
				c-0.36,0.23-0.73,0.42-1.11,0.53c-0.38,0.12-0.77,0.18-1.15,0.18c-1.12,0-2.05-0.37-2.8-1.12c-0.75-0.75-1.13-1.66-1.13-2.76
				c0-1.1,0.38-2.02,1.13-2.77s1.69-1.12,2.8-1.12c0.42,0,0.81,0.06,1.19,0.18C246.93,44.09,247.29,44.27,247.64,44.51z
				 M247.63,47.66c0-0.6-0.22-1.13-0.66-1.57s-0.98-0.66-1.61-0.66s-1.16,0.22-1.61,0.66s-0.66,0.97-0.66,1.57
				c0,0.61,0.22,1.14,0.66,1.57s0.98,0.66,1.61,0.66s1.16-0.22,1.61-0.66S247.63,48.27,247.63,47.66z"/>
			<path d="M256.47,44.03v5.62h1.97c0.4,0,0.67,0.07,0.84,0.23c0.17,0.15,0.25,0.35,0.25,0.6c0,0.24-0.08,0.43-0.25,0.59
				c-0.17,0.16-0.45,0.23-0.84,0.23h-5.58c-0.4,0-0.67-0.07-0.84-0.23c-0.17-0.16-0.25-0.35-0.25-0.6c0-0.24,0.08-0.43,0.25-0.59
				c0.17-0.16,0.45-0.23,0.84-0.23h1.97v-3.99h-1.32c-0.39,0-0.67-0.07-0.84-0.23c-0.18-0.16-0.26-0.35-0.26-0.6
				c0-0.24,0.08-0.43,0.25-0.59c0.17-0.15,0.45-0.23,0.84-0.23h2.97V44.03z M256.25,40.91v1.74h-1.95v-1.74H256.25z"/>
			<path d="M263.84,44.03v0.55c0.3-0.26,0.63-0.45,0.99-0.57c0.36-0.13,0.75-0.19,1.17-0.19c0.97,0,1.74,0.3,2.31,0.9
				c0.45,0.48,0.67,1.11,0.67,1.88v3.05c0.35,0,0.6,0.07,0.77,0.23c0.17,0.15,0.25,0.35,0.25,0.6c0,0.24-0.08,0.43-0.25,0.59
				c-0.17,0.16-0.45,0.23-0.84,0.23h-1.48c-0.4,0-0.67-0.07-0.84-0.23c-0.17-0.16-0.25-0.35-0.25-0.6c0-0.24,0.08-0.43,0.25-0.59
				c0.17-0.16,0.42-0.23,0.77-0.23v-3.09c0-0.36-0.09-0.62-0.29-0.78c-0.25-0.21-0.63-0.32-1.13-0.32c-0.38,0-0.71,0.07-1,0.22
				s-0.65,0.46-1.08,0.93v3.05c0.42,0,0.69,0.04,0.81,0.12c0.26,0.16,0.39,0.4,0.39,0.7c0,0.24-0.08,0.43-0.25,0.59
				c-0.17,0.16-0.45,0.23-0.84,0.23h-1.87c-0.4,0-0.67-0.07-0.84-0.23c-0.17-0.16-0.25-0.35-0.25-0.6c0-0.3,0.13-0.54,0.39-0.69
				c0.13-0.08,0.41-0.12,0.82-0.12v-3.99c-0.35,0-0.6-0.07-0.77-0.23c-0.17-0.16-0.25-0.35-0.25-0.59s0.08-0.43,0.25-0.59
				c0.17-0.15,0.45-0.23,0.84-0.23L263.84,44.03L263.84,44.03z"/>
			<path d="M279.45,48.49h-6.73c0.18,0.42,0.47,0.77,0.9,1.03c0.43,0.26,1.02,0.39,1.76,0.39c0.61,0,1.41-0.13,2.43-0.39
				c0.42-0.11,0.7-0.16,0.87-0.16c0.22,0,0.41,0.07,0.55,0.23c0.15,0.16,0.22,0.35,0.22,0.58c0,0.21-0.08,0.4-0.24,0.54
				c-0.21,0.19-0.73,0.39-1.56,0.56c-0.83,0.18-1.62,0.27-2.38,0.27c-1.31,0-2.36-0.37-3.15-1.12c-0.78-0.74-1.18-1.65-1.18-2.73
				c0-1.15,0.42-2.09,1.27-2.82c0.85-0.72,1.83-1.08,2.95-1.08c0.66,0,1.28,0.12,1.84,0.35c0.55,0.23,0.97,0.49,1.25,0.76
				c0.39,0.4,0.7,0.89,0.95,1.47c0.17,0.41,0.26,0.88,0.26,1.41L279.45,48.49L279.45,48.49z M277.63,46.85
				c-0.25-0.47-0.58-0.82-0.99-1.05s-0.89-0.35-1.45-0.35c-0.55,0-1.03,0.12-1.44,0.35s-0.74,0.58-1,1.05H277.63z"/>
			<path d="M289.29,48.49h-6.73c0.18,0.42,0.47,0.77,0.9,1.03c0.43,0.26,1.02,0.39,1.76,0.39c0.61,0,1.41-0.13,2.43-0.39
				c0.42-0.11,0.7-0.16,0.87-0.16c0.22,0,0.41,0.07,0.55,0.23c0.15,0.16,0.22,0.35,0.22,0.58c0,0.21-0.08,0.4-0.24,0.54
				c-0.21,0.19-0.73,0.39-1.56,0.56c-0.83,0.18-1.62,0.27-2.38,0.27c-1.31,0-2.36-0.37-3.15-1.12c-0.78-0.74-1.18-1.65-1.18-2.73
				c0-1.15,0.42-2.09,1.27-2.82c0.85-0.72,1.83-1.08,2.95-1.08c0.66,0,1.28,0.12,1.84,0.35c0.55,0.23,0.97,0.49,1.25,0.76
				c0.39,0.4,0.7,0.89,0.95,1.47c0.17,0.41,0.26,0.88,0.26,1.41L289.29,48.49L289.29,48.49z M287.47,46.85
				c-0.25-0.47-0.58-0.82-0.99-1.05s-0.89-0.35-1.45-0.35c-0.55,0-1.03,0.12-1.44,0.35s-0.74,0.58-1,1.05H287.47z"/>
			<path d="M294.66,44.03v1.02c0.69-0.5,1.23-0.83,1.62-1s0.77-0.25,1.12-0.25c0.54,0,1.05,0.19,1.55,0.59
				c0.34,0.27,0.51,0.54,0.51,0.81c0,0.23-0.08,0.43-0.24,0.6c-0.17,0.17-0.36,0.24-0.59,0.24c-0.2,0-0.42-0.1-0.64-0.3
				c-0.22-0.2-0.42-0.3-0.6-0.3c-0.23,0-0.57,0.15-1.02,0.43c-0.45,0.29-1.02,0.72-1.71,1.29v2.47h2.34c0.4,0,0.67,0.07,0.84,0.23
				c0.17,0.15,0.25,0.35,0.25,0.6c0,0.24-0.08,0.43-0.25,0.59c-0.17,0.16-0.45,0.23-0.84,0.23h-4.95c-0.4,0-0.67-0.07-0.84-0.23
				c-0.17-0.16-0.25-0.35-0.25-0.6c0-0.24,0.08-0.43,0.25-0.59c0.17-0.16,0.45-0.23,0.84-0.23h0.98v-3.99h-0.59
				c-0.4,0-0.67-0.07-0.84-0.23c-0.17-0.16-0.25-0.35-0.25-0.6c0-0.24,0.08-0.43,0.25-0.59c0.17-0.15,0.45-0.23,0.84-0.23h2.23
				V44.03z"/>
			<path d="M305.65,44.03v5.62h1.97c0.4,0,0.67,0.07,0.84,0.23c0.17,0.15,0.25,0.35,0.25,0.6c0,0.24-0.08,0.43-0.25,0.59
				c-0.17,0.16-0.45,0.23-0.84,0.23h-5.58c-0.4,0-0.67-0.07-0.84-0.23c-0.17-0.16-0.25-0.35-0.25-0.6c0-0.24,0.08-0.43,0.25-0.59
				c0.17-0.16,0.45-0.23,0.84-0.23H304v-3.99h-1.32c-0.39,0-0.67-0.07-0.84-0.23c-0.18-0.16-0.26-0.35-0.26-0.6
				c0-0.24,0.08-0.43,0.25-0.59c0.17-0.15,0.45-0.23,0.84-0.23h2.97V44.03z M305.42,40.91v1.74h-1.95v-1.74H305.42z"/>
			<path d="M313.01,44.03v0.55c0.3-0.26,0.63-0.45,0.99-0.57c0.36-0.13,0.75-0.19,1.17-0.19c0.97,0,1.74,0.3,2.31,0.9
				c0.45,0.48,0.67,1.11,0.67,1.88v3.05c0.35,0,0.6,0.07,0.77,0.23c0.17,0.15,0.25,0.35,0.25,0.6c0,0.24-0.08,0.43-0.25,0.59
				c-0.17,0.16-0.45,0.23-0.84,0.23h-1.48c-0.4,0-0.67-0.07-0.84-0.23c-0.17-0.16-0.25-0.35-0.25-0.6c0-0.24,0.08-0.43,0.25-0.59
				c0.17-0.16,0.42-0.23,0.77-0.23v-3.09c0-0.36-0.09-0.62-0.29-0.78c-0.25-0.21-0.63-0.32-1.13-0.32c-0.38,0-0.71,0.07-1,0.22
				s-0.65,0.46-1.08,0.93v3.05c0.42,0,0.69,0.04,0.81,0.12c0.26,0.16,0.39,0.4,0.39,0.7c0,0.24-0.08,0.43-0.25,0.59
				c-0.17,0.16-0.45,0.23-0.84,0.23h-1.87c-0.4,0-0.67-0.07-0.84-0.23c-0.17-0.16-0.25-0.35-0.25-0.6c0-0.3,0.13-0.54,0.39-0.69
				c0.13-0.08,0.41-0.12,0.82-0.12v-3.99c-0.35,0-0.6-0.07-0.77-0.23c-0.17-0.16-0.25-0.35-0.25-0.59s0.08-0.43,0.25-0.59
				c0.17-0.15,0.45-0.23,0.84-0.23L313.01,44.03L313.01,44.03z"/>
			<path d="M326.31,44.51v-0.49h1.92c0.4,0,0.67,0.07,0.84,0.23c0.17,0.16,0.25,0.35,0.25,0.6c0,0.24-0.08,0.43-0.25,0.59
				c-0.17,0.16-0.45,0.23-0.84,0.23h-0.28v5.97c0,0.57-0.12,1.08-0.36,1.5c-0.24,0.42-0.62,0.8-1.12,1.11
				c-0.5,0.3-1.07,0.46-1.7,0.46h-1.86c-0.4,0-0.67-0.07-0.84-0.23c-0.17-0.16-0.25-0.35-0.25-0.59c0-0.25,0.08-0.44,0.25-0.6
				c0.17-0.16,0.45-0.23,0.84-0.23h1.81c0.5,0,0.89-0.14,1.17-0.41c0.28-0.27,0.42-0.62,0.42-1.03v-0.8
				c-0.36,0.23-0.73,0.42-1.11,0.53c-0.38,0.12-0.77,0.18-1.15,0.18c-1.12,0-2.05-0.37-2.8-1.12c-0.75-0.75-1.13-1.66-1.13-2.76
				c0-1.1,0.38-2.02,1.13-2.77s1.69-1.12,2.8-1.12c0.42,0,0.81,0.06,1.19,0.18C325.61,44.09,325.97,44.27,326.31,44.51z
				 M326.3,47.66c0-0.6-0.22-1.13-0.66-1.57c-0.44-0.44-0.98-0.66-1.61-0.66c-0.63,0-1.16,0.22-1.61,0.66s-0.66,0.97-0.66,1.57
				c0,0.61,0.22,1.14,0.66,1.57s0.98,0.66,1.61,0.66c0.63,0,1.16-0.22,1.61-0.66C326.08,48.8,326.3,48.27,326.3,47.66z"/>
		</g>
	</g>
	<g id="logomark">
		<path class="st1" d="M28.13,1.77c-7.05,0-13.45,2.82-18.16,7.37h36.32C41.59,4.58,35.19,1.77,28.13,1.77z"/>
		<path class="st1" d="M2,27.9c0,4.41,1.11,8.58,3.05,12.22V15.68C3.1,19.32,2,23.49,2,27.9z"/>
		<path class="st1" d="M50.97,15.23v14.84v10.52c2.1-3.76,3.3-8.08,3.3-12.68S53.07,18.98,50.97,15.23z"/>
		<path d="M50.97,11.91V9.14h-2.21C43.66,3.53,36.3,0,28.13,0S12.61,3.53,7.51,9.14H5.04v3.11C2.01,16.72,0.23,22.1,0.23,27.9
			s1.78,11.18,4.81,15.65v11.51h11.89h4.86c2.04,0.48,4.16,0.74,6.34,0.74s4.3-0.26,6.34-0.74h16.5V43.89
			c3.19-4.53,5.06-10.05,5.06-15.99S54.16,16.44,50.97,11.91z M49.21,53.3H18.71V31.84h30.51v9.85h-21.2v1.77h21.12h0.08V53.3z
			 M6.81,53.3V10.9h42.4v19.16H16.93V53.3C16.93,53.3,6.81,53.3,6.81,53.3z M28.13,1.77c7.05,0,13.45,2.82,18.16,7.37H9.97
			C14.68,4.58,21.08,1.77,28.13,1.77z M2,27.9c0-4.41,1.11-8.58,3.05-12.22v24.46C3.1,36.48,2,32.32,2,27.9z M50.97,30.06V15.23
			c2.1,3.76,3.3,8.08,3.3,12.68s-1.2,8.92-3.3,12.68V30.06z"/>
		<rect x="16.54" y="19.85" width="22.1" height="1.77"/>
	</g>
</g>
</svg>
